<svg width="34" height="34" viewBox="0 0 34 34" fill="none" xmlns="http://www.w3.org/2000/svg">
<circle cx="17" cy="17" r="17" fill="#1877F2"/>
<path d="M26 17.055C26 12.0541 21.9706 8 17 8C12.0294 8 8 12.0541 8 17.055C8 21.5745 11.2912 25.3207 15.5938 26V19.6725H13.3086V17.055H15.5938V15.0601C15.5938 12.7907 16.9374 11.5371 18.9932 11.5371C19.9776 11.5371 21.0078 11.714 21.0078 11.714V13.9423H19.873C18.755 13.9423 18.4062 14.6404 18.4062 15.3572V17.055H20.9023L20.5033 19.6725H18.4062V26C22.7088 25.3207 26 21.5745 26 17.055Z" fill="white"/>
</svg>
