<svg width="16" height="16" viewBox="0 0 16 16" fill="none" xmlns="http://www.w3.org/2000/svg">
<circle cx="8" cy="8" r="8" fill="#EE9492"/>
<path d="M4.29412 11.5052L5.62519 12.7118C6.55431 12.1919 8.18203 10.7649 9.12594 9.72368C11.2925 7.33379 12.049 4.49311 11.5939 4.08062C11.1186 3.64967 8.38585 4.69879 6.2193 7.08867C5.26906 8.13687 4.03477 9.90783 3.615 10.8895L4.29412 11.5052Z" stroke="white" stroke-width="0.45" stroke-miterlimit="10"/>
<path d="M7.74168 5.66824C7.8848 6.00169 8.21762 6.49437 8.74586 6.55312C9.15551 6.60622 9.79367 6.42089 10.2029 6.46083C10.546 6.4918 10.8334 6.62508 11.02 6.88332" stroke="white" stroke-width="0.45" stroke-miterlimit="10"/>
<path d="M6.84129 6.44322C7.0016 6.70312 7.4784 7.36453 8.0483 7.48651C8.42627 7.57454 8.83045 7.4699 9.21835 7.46509C9.63251 7.45862 10.2834 7.45033 10.5207 7.84367" stroke="white" stroke-width="0.45" stroke-miterlimit="10"/>
<path d="M6.08782 7.275C6.28978 7.59813 6.55059 7.91095 6.85437 8.13542C7.2591 8.42594 7.84213 8.54709 8.3355 8.54878C8.76324 8.55462 9.63179 8.37446 9.88266 8.78011" stroke="white" stroke-width="0.45" stroke-miterlimit="10"/>
</svg>
