<svg width="16" height="16" viewBox="0 0 16 16" fill="none" xmlns="http://www.w3.org/2000/svg">
<circle cx="8" cy="8" r="8" fill="#D228D3"/>
<path d="M5.1 12H10.9C10.9552 12 11 11.9552 11 11.9V5.37369C11 5.3478 10.99 5.32292 10.972 5.30428L9.74378 4.03059C9.72493 4.01104 9.69895 4 9.6718 4H5.1C5.04477 4 5 4.04477 5 4.1V11.9C5 11.9552 5.04477 12 5.1 12Z" stroke="white" stroke-width="0.45"/>
<circle r="0.769548" transform="matrix(-1 0 0 1 8.03905 6.76955)" stroke="white" stroke-width="0.45"/>
<path d="M6.72658 9.094C6.8291 8.83769 7.01427 8.62296 7.25271 8.48387L7.28745 8.4636C7.75192 8.19266 8.32627 8.19266 8.79074 8.4636L8.82548 8.48387C9.06392 8.62296 9.2491 8.83769 9.35162 9.094V9.094C9.46014 9.36531 9.26033 9.66044 8.96812 9.66044H8.0391H7.11007C6.81786 9.66044 6.61805 9.36531 6.72658 9.094V9.094Z" stroke="white" stroke-width="0.45"/>
</svg>
