<svg width="36" height="39" viewBox="0 0 26 39" fill="none" xmlns="http://www.w3.org/2000/svg">
<rect x="3" y="2" width="20" height="20" rx="5" fill="white" fill-opacity="0.3" stroke="#0017B3" stroke-width="1.5"/>
<circle r="2.12456" transform="matrix(-1 0 0 1 13.1713 9.12456)" stroke="#0017B3" stroke-width="1.3"/>
<path d="M9.5474 15.5417C9.83044 14.8341 10.3417 14.2413 11 13.8573L11.0959 13.8013C12.3782 13.0533 13.9638 13.0533 15.2461 13.8013L15.342 13.8573C16.0003 14.2413 16.5115 14.8341 16.7946 15.5417V15.5417C17.0942 16.2907 16.5426 17.1055 15.7358 17.1055H13.171H10.6062C9.79942 17.1055 9.24779 16.2907 9.5474 15.5417V15.5417Z" stroke="#0017B3" stroke-width="1.3"/>
<path d="M6.86279 32.5145H5.88558V29.2099H4.86693V37.4247H5.88558V33.4019H6.86279V37.8633H7.90906V29.0442H6.86279V32.5145ZM1.80064 30.0525H0.712928V35.6671H1.29994C2.22881 35.6706 3.24055 35.6084 4.4353 35.3978L4.32135 34.4551C3.39249 34.6347 2.5603 34.7003 1.80064 34.7141V30.0525ZM13.7719 32.1312H15.2809V34.2894H16.3652V29.0442H15.2809V31.2438H13.7719V32.1312ZM11.6829 32.1934C12.0696 33.0256 12.7671 33.6989 13.7478 34.0304L14.2899 33.1706C12.9259 32.7148 12.2146 31.6305 12.2146 30.5497V30.4945H14.0413V29.6174H9.26918V30.4945H11.1097V30.5601C11.1097 31.7307 10.3638 32.9185 8.94459 33.4019L9.51089 34.2617C10.5606 33.8923 11.2961 33.1326 11.6829 32.1934ZM13.3783 34.5069C11.5137 34.5104 10.3707 35.1285 10.3742 36.1885C10.3707 37.2486 11.5137 37.8667 13.3783 37.8702C15.2464 37.8667 16.3893 37.2486 16.3893 36.1885C16.3893 35.1285 15.2464 34.5104 13.3783 34.5069ZM13.3783 37.0276C12.149 37.0345 11.448 36.7376 11.455 36.1885C11.448 35.636 12.149 35.3425 13.3783 35.3425C14.611 35.3425 15.3085 35.636 15.312 36.1885C15.3085 36.7376 14.611 37.0345 13.3783 37.0276ZM22.1694 34.1961H24.7591V29.6278H23.6783V31.0711H19.5899V29.6278H18.5022V34.1961H21.092V35.9157H17.6148V36.8032H25.6845V35.9157H22.1694V34.1961ZM23.6783 31.9413V33.3225H19.5899V31.9413H23.6783Z" fill="#0017B3"/>
</svg>
