<svg width="16" height="16" viewBox="0 0 16 16" fill="none" xmlns="http://www.w3.org/2000/svg">
<circle cx="8" cy="8" r="8" fill="#F3BC1F"/>
<path d="M4.13086 7.22659H7.83312C8.41769 7.22659 8.88534 6.72541 8.88534 6.11743C8.88534 5.50945 8.41769 5.00006 7.83312 5.00006C7.24855 5.00006 6.7809 5.50123 6.7809 6.10922C6.7809 6.17494 6.78869 6.23246 6.79649 6.29818" stroke="white" stroke-width="0.45" stroke-miterlimit="10" stroke-linecap="round"/>
<path d="M6.5625 9.69147H11.0208C11.6054 9.69147 12.0808 10.1926 12.0808 10.8088C12.0808 11.425 11.6054 11.9262 11.0208 11.9262C10.4362 11.9262 9.96079 11.425 9.96079 10.8088" stroke="white" stroke-width="0.45" stroke-miterlimit="10" stroke-linecap="round"/>
<path d="M3 8.46732H11.4645C12.2907 8.46732 12.9688 7.76075 12.9688 6.88164C12.9688 6.00253 12.2985 5.29596 11.4645 5.29596C10.6306 5.29596 9.96025 6.00253 9.96025 6.88164C9.96025 6.92272 9.96025 6.97202 9.96804 7.0131" stroke="white" stroke-width="0.45" stroke-miterlimit="10" stroke-linecap="round"/>
</svg>
