<svg width="16" height="16" viewBox="0 0 16 16" fill="none" xmlns="http://www.w3.org/2000/svg">
<circle cx="8" cy="8" r="8" fill="#0017B3"/>
<path d="M5.30078 7.09998H10.7008L10.3539 11.2621C10.2956 11.9618 9.71072 12.5 9.0086 12.5H6.99296C6.29084 12.5 5.70593 11.9618 5.64762 11.2621L5.30078 7.09998Z" stroke="white" stroke-width="0.45"/>
<circle r="0.9" transform="matrix(-1 0 0 1 8.00039 9.80002)" stroke="white" stroke-width="0.45"/>
<path d="M4.40039 6.19999C4.40039 5.70293 4.80333 5.29999 5.30039 5.29999H10.7004C11.1974 5.29999 11.6004 5.70293 11.6004 6.19999V6.19999C11.6004 6.69704 11.1974 7.09999 10.7004 7.09999H5.30039C4.80333 7.09999 4.40039 6.69704 4.40039 6.19999V6.19999Z" stroke="white" stroke-width="0.45"/>
<path d="M5.30078 4.4C5.30078 3.90294 5.70372 3.5 6.20078 3.5H9.80078C10.2978 3.5 10.7008 3.90294 10.7008 4.4V4.85C10.7008 5.09853 10.4993 5.3 10.2508 5.3H5.75078C5.50225 5.3 5.30078 5.09853 5.30078 4.85V4.4Z" stroke="white" stroke-width="0.45"/>
</svg>
