<svg width="34" height="34" viewBox="0 0 34 34" fill="none" xmlns="http://www.w3.org/2000/svg">
<circle cx="17" cy="17" r="17" fill="#C9C9C9"/>
<g clip-path="url(#clip0_2264_10369)">
<g clip-path="url(#clip1_2264_10369)">
<path d="M17 11.1667L14.6 13.7L15.8 14.9667L18.2 12.4333C19.19 11.3883 20.81 11.3883 21.8 12.4333C22.79 13.4783 22.79 15.1883 21.8 16.2333L19.4 18.7667L20.6 20.0334L23 17.5C24.656 15.752 24.656 12.9147 23 11.1667C21.344 9.41866 18.656 9.41866 17 11.1667ZM18.2 20.0334L15.8 22.5667C14.81 23.6117 13.19 23.6117 12.2 22.5667C11.21 21.5217 11.21 19.8117 12.2 18.7667L14.6 16.2333L13.4 14.9667L11 17.5C9.344 19.248 9.344 22.0854 11 23.8334C12.656 25.5814 15.344 25.5814 17 23.8334L19.4 21.3L18.2 20.0334ZM14 19.4L18.8 14.3333L20 15.6L15.2 20.6667L14 19.4Z" fill="white"/>
</g>
</g>
<defs>
<clipPath id="clip0_2264_10369">
<rect width="18" height="19" fill="white" transform="translate(8 8)"/>
</clipPath>
<clipPath id="clip1_2264_10369">
<rect width="18" height="19" fill="white" transform="translate(8 8)"/>
</clipPath>
</defs>
</svg>
