<svg width="34" height="34" viewBox="0 0 34 34" fill="none" xmlns="http://www.w3.org/2000/svg">
<circle cx="17" cy="17" r="17" fill="#1DA1F2"/>
<path d="M13.6626 25C20.4534 25 24.1687 19.2285 24.1687 14.2249C24.1687 14.0627 24.1652 13.8968 24.1582 13.7345C24.8809 13.1985 25.5046 12.5345 26 11.7738C25.3269 12.0809 24.6122 12.2815 23.8804 12.3687C24.651 11.895 25.2279 11.1509 25.5043 10.2742C24.7794 10.7148 23.9867 11.0256 23.1601 11.1933C22.6031 10.5864 21.8667 10.1845 21.0648 10.0498C20.2628 9.91517 19.4399 10.0552 18.7233 10.4483C18.0067 10.8414 17.4363 11.4657 17.1004 12.2246C16.7644 12.9835 16.6816 13.8347 16.8646 14.6468C15.3969 14.5712 13.961 14.1802 12.65 13.499C11.339 12.8178 10.1823 11.8616 9.25473 10.6925C8.7833 11.5261 8.63904 12.5125 8.85127 13.4513C9.0635 14.39 9.6163 15.2107 10.3973 15.7465C9.81097 15.7274 9.23748 15.5655 8.72422 15.2742V15.321C8.72369 16.1958 9.01857 17.0438 9.55873 17.7209C10.0989 18.3979 10.851 18.8622 11.6872 19.0348C11.144 19.1872 10.574 19.2095 10.0211 19.0997C10.2571 19.8521 10.7162 20.5101 11.3343 20.982C11.9525 21.4538 12.6988 21.716 13.4693 21.7318C12.1613 22.7856 10.5456 23.3571 8.88242 23.3544C8.58747 23.3539 8.2928 23.3354 8 23.2989C9.68964 24.4106 11.6551 25.0011 13.6626 25Z" fill="white"/>
</svg>
