<svg width="16" height="16" viewBox="0 0 16 16" fill="none" xmlns="http://www.w3.org/2000/svg">
<circle cx="8" cy="8" r="8" fill="#9F97FF"/>
<path d="M11.775 7.5C11.775 9.28145 10.114 10.775 8 10.775C5.88596 10.775 4.225 9.28145 4.225 7.5C4.225 5.71855 5.88596 4.225 8 4.225C10.114 4.225 11.775 5.71855 11.775 7.5Z" stroke="white" stroke-width="0.45"/>
<path d="M4.29883 6.50003C3.63216 6.33336 2.19883 6.20003 1.79883 7.00003C2.13216 7.50002 3.09883 8.4 4.29883 8" stroke="white" stroke-width="0.45"/>
<path d="M11.7988 6.50003C12.4655 6.33336 13.8988 6.20003 14.2988 7.00003C13.9655 7.50002 12.9988 8.4 11.7988 8" stroke="white" stroke-width="0.45"/>
<path d="M7.57578 7C7.57578 7.17751 7.46785 7.36575 7.23663 7.5199C7.00699 7.67299 6.67677 7.775 6.30078 7.775C5.92479 7.775 5.59458 7.67299 5.36493 7.5199C5.13371 7.36575 5.02578 7.17751 5.02578 7C5.02578 6.82249 5.13371 6.63425 5.36493 6.4801C5.59458 6.32701 5.92479 6.225 6.30078 6.225C6.67677 6.225 7.00699 6.32701 7.23663 6.4801C7.46785 6.63425 7.57578 6.82249 7.57578 7Z" stroke="white" stroke-width="0.45"/>
<path d="M10.9742 7C10.9742 7.17751 10.8663 7.36575 10.6351 7.5199C10.4054 7.67299 10.0752 7.775 9.69922 7.775C9.32323 7.775 8.99301 7.67299 8.76337 7.5199C8.53215 7.36575 8.42422 7.17751 8.42422 7C8.42422 6.82249 8.53215 6.63425 8.76337 6.4801C8.99301 6.32701 9.32323 6.225 9.69922 6.225C10.0752 6.225 10.4054 6.32701 10.6351 6.4801C10.8663 6.63425 10.9742 6.82249 10.9742 7Z" stroke="white" stroke-width="0.45"/>
<path d="M9.5 8.59998C9.5 9.15226 8.82843 9.59998 8 9.59998C7.17157 9.59998 6.5 9.15226 6.5 8.59998" stroke="white" stroke-width="0.45"/>
</svg>
