<svg width="100" height="100" viewBox="0 0 24 39" fill="none" xmlns="http://www.w3.org/2000/svg">
<rect x="2" y="2" width="20" height="20" rx="5" fill="white" fill-opacity="0.3" stroke="#0017B3" stroke-width="1.5"/>
<path d="M8 17L8 14" stroke="#0017B3" stroke-width="1.5" stroke-linecap="round" stroke-linejoin="round"/>
<path d="M12 17L12 7" stroke="#0017B3" stroke-width="1.5" stroke-linecap="round" stroke-linejoin="round"/>
<path d="M16 17L16 10" stroke="#0017B3" stroke-width="1.5" stroke-linecap="round" stroke-linejoin="round"/>
<path d="M7.84807 32.9807H10.4413V32.145H5.39641V31.5166H10.1581V30.7189H5.39641V30.1181H10.3757V29.2721H4.30525V32.9807H6.75691V33.6333H3.27624V34.4931H11.3356V33.6333H7.84807V32.9807ZM7.30249 34.98C5.33771 34.9765 4.22928 35.491 4.22928 36.4164C4.22928 37.3591 5.33771 37.8598 7.30249 37.8564C9.24655 37.8598 10.3584 37.3591 10.3619 36.4164C10.3584 35.491 9.24655 34.9765 7.30249 34.98ZM7.30249 37.0449C5.97652 37.0483 5.31354 36.8446 5.31699 36.4164C5.31354 35.9952 5.97652 35.788 7.30249 35.788C8.61119 35.788 9.27072 35.9952 9.27762 36.4164C9.27072 36.8446 8.61119 37.0483 7.30249 37.0449ZM18.521 37.8633H19.5466V29.0442H18.521V37.8633ZM15.6654 31.413C15.7275 30.9952 15.7586 30.5635 15.7586 30.1181H12.3159V30.9986H14.6778C14.5155 32.7735 13.6695 34.1512 11.8429 35.2355L12.4851 36.0055C14.1391 35.0214 15.0576 33.7645 15.4755 32.297H16.6944V33.616H15.3166V34.4965H16.6944V37.4523H17.7268V29.2583H16.6944V31.413H15.6654Z" fill="#0017B3"/>
</svg>
