<svg width="134" height="59" viewBox="0 0 134 59" fill="none" xmlns="http://www.w3.org/2000/svg">
<path d="M2 42.6263C6.23716 40.7591 10.4743 38.82 14.2088 36.1628C18.015 33.5056 21.3186 30.0585 23.2576 25.8931C25.053 21.9432 25.5558 17.4906 27.6384 13.7562C30.0802 9.37537 34.6764 6.21545 39.7036 6L56.8677 22.0868C53.6359 21.656 47.3161 24.3132 45.2334 26.7549C43.0789 29.2685 41.9299 32.4284 41.0681 35.6601C40.2063 38.82 39.5599 42.1236 38.2672 45.1399C36.1127 50.3106 32.0192 54.6914 26.9921 57.205C26.7766 57.2768 26.5612 57.4205 26.3457 57.4205C25.9867 57.4205 25.6276 57.205 25.2685 56.9896L2 42.6263Z" fill="#DEE0F6" stroke="#3237CC" stroke-width="2.5" stroke-miterlimit="10" stroke-linecap="round" stroke-linejoin="round"/>
<path d="M42.8308 27.9553L28.4111 15.8428C29.3143 11.3267 34.179 7.76783 39.3701 7.19104L53.7897 21.0338C46.8683 22.7642 44.1766 25.2636 42.8308 27.9553Z" fill="white"/>
<ellipse cx="26.3561" cy="44.2586" rx="5.66511" ry="5.72936" transform="rotate(29.3085 26.3561 44.2586)" fill="#3237CC"/>
<ellipse rx="3.43854" ry="3.47754" transform="matrix(-0.871996 -0.489512 -0.489512 0.871996 20.999 40.7458)" fill="#3237CC"/>
<path d="M26.6041 31.8535L26.6497 33.9696L27.3957 34.4439L27.3569 32.3814L27.3791 32.3464L32.5714 35.6484L33.0458 34.9025L27.0784 31.1076L26.6041 31.8535Z" fill="#3237CC"/>
<path d="M35.3345 30.3173C36.1757 28.9944 35.5481 27.5232 33.5959 26.2817C31.6612 25.0513 30.0377 25.1074 29.2039 26.4186C28.3701 27.7298 29.0077 29.2238 30.9425 30.4542C32.8947 31.6957 34.4932 31.6401 35.3345 30.3173ZM34.6759 29.8985C34.1275 30.761 32.9463 30.7137 31.402 29.7316C29.8577 28.7495 29.306 27.6866 29.8508 26.83C30.3955 25.9733 31.5921 26.0222 33.1364 27.0043C34.6807 27.9864 35.2244 29.036 34.6759 29.8985Z" fill="#3237CC"/>
<path d="M38.355 24.1295C39.3352 22.9061 38.8715 21.3753 37.066 19.9287C35.2767 18.495 33.6569 18.3741 32.6852 19.5867C31.7136 20.7993 32.1849 22.3539 33.9742 23.7876C35.7796 25.2342 37.3747 25.353 38.355 24.1295ZM37.746 23.6416C37.1068 24.4392 35.9378 24.2636 34.5096 23.1193C33.0814 21.9749 32.6487 20.8583 33.2835 20.066C33.9183 19.2738 35.1024 19.4526 36.5306 20.597C37.9588 21.7413 38.3851 22.8439 37.746 23.6416Z" fill="#3237CC"/>
<path d="M43.0949 19.0598C44.1462 17.8968 43.7744 16.3412 42.0582 14.7897C40.3574 13.2521 38.7475 13.035 37.7055 14.1877C36.6635 15.3404 37.0414 16.9202 38.7422 18.4578C40.4585 20.0092 42.0436 20.2227 43.0949 19.0598ZM42.516 18.5364C41.8306 19.2946 40.6741 19.0498 39.3165 17.8225C37.9589 16.5952 37.5934 15.4548 38.2742 14.7018C38.955 13.9487 40.1263 14.1977 41.4839 15.4249C42.8415 16.6522 43.2015 17.7782 42.516 18.5364Z" fill="#3237CC"/>
<path d="M84.6011 44.6666C87.4737 38.3468 93.1472 33.3196 99.8261 31.3806C104.279 30.0161 109.09 30.0161 113.759 30.447C117.852 30.8061 122.233 31.3806 125.752 29.2979C129.055 27.2871 130.635 23.4808 132 19.89L114.405 1.93591C114.333 4.5213 112.825 6.81942 110.814 8.4712C108.803 10.123 106.361 10.9848 103.92 11.7747C99.9698 12.9956 95.9481 13.7856 91.8545 14.2165C89.7719 14.4319 87.6174 14.5038 85.6783 15.1501C80.1485 17.0173 76.9886 22.7626 74.6904 28.1489L84.6011 44.6666Z" fill="#DEE0F6" stroke="#3237CC" stroke-width="2.5" stroke-miterlimit="10" stroke-linecap="round" stroke-linejoin="round"/>
<ellipse cx="87.4557" cy="28.4152" rx="4.4396" ry="4.48995" transform="rotate(45.6858 87.4557 28.4152)" fill="#3237CC"/>
<ellipse rx="2.69469" ry="2.72525" transform="matrix(-0.698592 -0.71552 -0.71552 0.698592 84.2042 24.5902)" fill="#3237CC"/>
<path d="M130.552 20.1814L114.979 4.60815C114.056 8.76101 108.442 11.7218 105.75 12.6832L117.286 29.4099C125.592 30.7942 129.591 23.8343 130.552 20.1814Z" fill="white"/>
<path d="M92.3019 19.2877L91.267 21.134L91.6688 21.9214L92.6825 20.1247L92.7194 20.1059L95.5165 25.5867L96.3039 25.1849L93.0893 18.8859L92.3019 19.2877Z" fill="#3237CC"/>
<path d="M101.215 24.4446C102.663 23.844 102.993 22.279 102.107 20.1419C101.229 18.0241 99.867 17.1384 98.4316 17.7337C96.9963 18.329 96.6612 19.9184 97.5396 22.0363C98.4259 24.1733 99.7669 25.0452 101.215 24.4446ZM100.916 23.7237C99.9719 24.1153 99.0317 23.3987 98.3306 21.7082C97.6295 20.0178 97.7876 18.8307 98.7253 18.4418C99.6631 18.0528 100.615 18.7795 101.316 20.47C102.017 22.1605 101.86 23.3321 100.916 23.7237Z" fill="#3237CC"/>
<path d="M108.298 23.2531C109.703 22.5577 109.929 20.9742 108.902 18.9008C107.885 16.8459 106.468 16.0526 105.075 16.7418C103.683 17.4311 103.454 19.0393 104.471 21.0942C105.497 23.1677 106.893 23.9485 108.298 23.2531ZM107.952 22.5537C107.036 23.0071 106.05 22.3545 105.238 20.7143C104.427 19.0741 104.505 17.8792 105.415 17.4289C106.325 16.9785 107.323 17.6404 108.135 19.2806C108.947 20.9208 108.868 22.1003 107.952 22.5537Z" fill="#3237CC"/>
<path d="M115.845 20.8554C117.187 20.046 117.281 18.4492 116.086 16.4679C114.902 14.5044 113.424 13.8313 112.093 14.6336C110.763 15.4359 110.668 17.0576 111.852 19.0211C113.046 21.0024 114.502 21.6649 115.845 20.8554ZM115.442 20.1871C114.566 20.7149 113.53 20.1462 112.585 18.5789C111.64 17.0117 111.62 15.8143 112.489 15.2901C113.359 14.7659 114.408 15.3428 115.353 16.9101C116.298 18.4774 116.317 19.6594 115.442 20.1871Z" fill="#3237CC"/>
</svg>
