<svg width="271" height="439" viewBox="0 0 271 439" fill="none" xmlns="http://www.w3.org/2000/svg">
<g clip-path="url(#clip0_2251_8843)">
<path d="M36.1093 284.782C32.889 279.785 29.326 275.063 25.489 270.545C25.0779 273.215 24.9409 275.952 25.1464 278.69L12.4706 272.188C11.7169 271.777 10.8947 272.599 11.2373 273.352L14.0465 279.443L5.1392 279.375C4.31698 279.375 3.97439 280.401 4.65957 280.88C6.78363 282.318 8.83917 284.645 10.6206 286.561L2.26144 288.067C1.23367 288.341 1.09664 289.641 1.91885 290.189C4.65957 291.9 7.12622 294.09 9.04472 296.623C7.0577 297.581 5.1392 298.676 3.35773 299.908C2.94662 300.182 3.01514 300.866 3.56329 301.003C8.77065 302.578 14.8002 303.536 21.515 303.81" fill="#DEE0F7"/>
<path d="M36.1093 284.782C32.889 279.785 29.326 275.063 25.489 270.545C25.0779 273.215 24.9409 275.952 25.1464 278.69L12.4706 272.188C11.7169 271.777 10.8947 272.599 11.2373 273.352L14.0465 279.443L5.1392 279.375C4.31698 279.375 3.97439 280.401 4.65957 280.88C6.78363 282.318 8.83917 284.645 10.6206 286.561L2.26144 288.067C1.23367 288.341 1.09664 289.641 1.91885 290.189C4.65957 291.9 7.12622 294.09 9.04472 296.623C7.0577 297.581 5.1392 298.676 3.35773 299.908C2.94662 300.182 3.01514 300.866 3.56329 301.003C8.77065 302.578 14.8002 303.536 21.515 303.81" stroke="#0017B3" stroke-width="3" stroke-miterlimit="10" stroke-linecap="round" stroke-linejoin="round"/>
<path d="M215.146 227.425V439.262" stroke="#0017B3" stroke-width="3" stroke-miterlimit="10" stroke-linecap="round" stroke-linejoin="round"/>
<path d="M215 0L215 197" stroke="#0017B3" stroke-width="3" stroke-miterlimit="10" stroke-linecap="round" stroke-linejoin="round"/>
<path d="M184.656 221.607C200.621 258.431 188.836 298.882 158.345 312.091C127.855 325.233 90.2385 306.137 74.3423 269.313C58.4461 232.49 73.1775 183.415 105.586 163.703C114.151 158.501 115.11 170.616 124.909 171.574C149.438 174.038 173.488 195.94 184.656 221.607Z" stroke="#0017B3" stroke-width="3" stroke-miterlimit="10" stroke-linecap="round" stroke-linejoin="round"/>
<path d="M153.343 206.823C139.982 203.538 126.073 210.587 115.247 218.185C104.01 226.056 91.9513 236.528 86.881 249.875C83.1125 259.799 83.7976 272.051 90.6494 279.991C98.392 289.025 114.357 299.634 125.251 291.284C131.897 286.219 137.584 276.637 143.614 271.024C152.727 262.537 175.201 256.856 176.365 242.414C177.667 227.356 167.732 210.314 153.343 206.823Z" fill="#DEE0F7" stroke="#0017B3" stroke-width="3" stroke-miterlimit="10" stroke-linecap="round" stroke-linejoin="round"/>
<path d="M165.579 251.526C171.56 246.242 169.702 234.383 161.429 225.039C153.156 215.694 141.6 212.403 135.619 217.687C129.638 222.971 131.496 234.83 139.769 244.174C148.042 253.519 159.597 256.811 165.579 251.526Z" fill="white" stroke="#0017B3" stroke-width="3" stroke-miterlimit="10" stroke-linecap="round" stroke-linejoin="round"/>
<path d="M128.065 281.147C133.355 275.172 130.06 263.629 120.705 255.365C111.351 247.101 99.479 245.245 94.1893 251.22C88.8995 257.194 92.1947 268.738 101.549 277.002C110.904 285.266 122.775 287.122 128.065 281.147Z" fill="white" stroke="#0017B3" stroke-width="3" stroke-miterlimit="10" stroke-linecap="round" stroke-linejoin="round"/>
<path d="M135.186 266.507C134.227 268.081 133.199 269.587 132.24 271.161C131.829 271.777 131.418 272.462 131.486 273.215C131.555 274.173 132.308 274.994 133.199 275.473C134.912 276.5 137.105 276.705 139.023 276.089" stroke="#0017B3" stroke-width="3" stroke-miterlimit="10" stroke-linecap="round" stroke-linejoin="round"/>
<path d="M168.476 298.372C179.71 289.465 184.469 276.772 179.105 270.021C173.741 263.27 160.286 265.018 149.052 273.924C137.818 282.831 133.059 295.525 138.423 302.276C143.787 309.027 157.242 307.279 168.476 298.372Z" fill="#DEE0F7" stroke="#0017B3" stroke-width="3" stroke-miterlimit="10" stroke-linecap="round" stroke-linejoin="round"/>
<path d="M105.038 180.745C104.695 184.099 105.175 187.522 106.34 190.67" stroke="#0017B3" stroke-width="3" stroke-miterlimit="10" stroke-linecap="round" stroke-linejoin="round"/>
<path d="M111.616 180.609C112.712 182.525 114.151 184.305 115.727 185.81" stroke="#0017B3" stroke-width="3" stroke-miterlimit="10" stroke-linecap="round" stroke-linejoin="round"/>
<path d="M147.04 293.064C151.425 293.064 157.181 287.451 159.373 283.687C160.264 282.181 160.812 280.47 161.223 278.759C161.84 276.363 162.388 273.899 162.183 271.435C164.581 273.283 166.568 275.679 167.801 278.416C168.486 279.991 168.966 281.702 168.897 283.413C168.829 284.919 168.349 286.425 167.732 287.725C165.951 291.421 162.594 294.364 158.62 295.459C154.646 296.623 150.123 295.733 147.04 293.064Z" fill="white" stroke="#0017B3" stroke-width="3" stroke-miterlimit="10" stroke-linecap="round" stroke-linejoin="round"/>
<path d="M155.468 288.752C158.688 291.353 158.688 291.216 161.908 293.68" stroke="#0017B3" stroke-width="3" stroke-miterlimit="10" stroke-linecap="round" stroke-linejoin="round"/>
<path d="M160.606 280.88C163.827 283.687 164.855 285.056 167.732 287.725" stroke="#0017B3" stroke-width="3" stroke-miterlimit="10" stroke-linecap="round" stroke-linejoin="round"/>
<path d="M173.899 302.03C169.034 307.985 166.91 316.13 168.349 323.727C168.897 326.465 170.062 329.476 172.666 330.572C173.077 330.777 173.625 330.914 174.036 330.708C174.31 330.572 174.516 330.229 174.721 329.956C176.229 327.218 176.434 323.864 176.366 320.715C176.297 314.35 175.612 308.053 174.379 301.825" stroke="#0017B3" stroke-width="3" stroke-miterlimit="10" stroke-linecap="round" stroke-linejoin="round"/>
<path d="M175.133 300.387C178.49 298.197 184.794 296.828 188.768 296.76C191.509 296.691 194.455 296.76 196.579 298.471C197.538 299.224 198.155 300.319 198.703 301.414C199.251 302.646 199.594 304.083 199.114 305.384C198.36 307.437 195.894 308.19 193.701 308.464C187.192 309.217 179.929 305.247 174.311 301.825" stroke="#0017B3" stroke-width="3" stroke-miterlimit="10" stroke-linecap="round" stroke-linejoin="round"/>
<path d="M125.389 314.761C125.252 318.251 125.183 322.427 126.691 325.507C128.404 328.929 131.898 331.188 135.598 332.283C141.97 334.199 149.233 332.967 154.577 328.997C159.511 325.37 162.663 319.894 165.54 314.487C166.705 312.297 168.212 309.901 170.131 307.916" stroke="#0017B3" stroke-width="3" stroke-miterlimit="10" stroke-linecap="round" stroke-linejoin="round"/>
<path d="M191.097 265.07C194.112 263.085 199.388 261.237 202.814 262.332C207.61 263.906 210.419 269.313 210.077 274.378C209.734 279.443 206.788 283.96 203.156 287.451C199.525 290.942 190.412 294.09 184.999 297.102" stroke="#0017B3" stroke-width="3" stroke-miterlimit="10" stroke-linecap="round" stroke-linejoin="round"/>
<path d="M214.187 233.927C209.734 231.463 206.719 226.946 205.074 222.155C203.91 218.732 203.498 215.105 203.361 211.477C203.156 205.249 206.171 201.21 210.624 198.746C213.297 197.241 216.585 196.419 220.011 196.009C220.285 196.009 220.628 196.009 220.765 196.282C220.834 196.419 220.765 196.556 220.697 196.693C220.08 198.678 219.463 200.663 218.847 202.579C220.491 203.401 222.067 203.743 223.506 204.907C223.78 205.112 223.985 205.386 224.054 205.728C224.054 206.002 223.917 206.207 223.78 206.412C222.615 208.055 221.313 209.561 219.806 210.861C221.724 211.683 223.574 212.778 225.219 214.01C225.493 214.215 225.767 214.42 225.767 214.763C225.767 215.036 225.561 215.242 225.424 215.447C223.917 217.158 222.204 218.596 220.285 219.828C221.998 220.923 223.506 222.908 224.808 224.345C221.724 225.372 218.572 226.398 215.489 227.356" fill="#DEE0F7"/>
<path d="M214.187 233.927C209.734 231.463 206.719 226.946 205.074 222.155C203.91 218.732 203.498 215.105 203.361 211.477C203.156 205.249 206.171 201.21 210.624 198.746C213.297 197.241 216.585 196.419 220.011 196.009C220.285 196.009 220.628 196.009 220.765 196.282C220.834 196.419 220.765 196.556 220.697 196.693C220.08 198.678 219.463 200.663 218.847 202.579C220.491 203.401 222.067 203.743 223.506 204.907C223.78 205.112 223.985 205.386 224.054 205.728C224.054 206.002 223.917 206.207 223.78 206.412C222.615 208.055 221.313 209.561 219.806 210.861C221.724 211.683 223.574 212.778 225.219 214.01C225.493 214.215 225.767 214.42 225.767 214.763C225.767 215.036 225.561 215.242 225.424 215.447C223.917 217.158 222.204 218.596 220.285 219.828C221.998 220.923 223.506 222.908 224.808 224.345C221.724 225.372 218.572 226.398 215.489 227.356" stroke="#0017B3" stroke-width="3" stroke-miterlimit="10" stroke-linecap="round" stroke-linejoin="round"/>
<path d="M197.537 261.921C202.47 254.118 207.815 251.518 214.941 248.301" stroke="#0017B3" stroke-width="3" stroke-miterlimit="10" stroke-linecap="round" stroke-linejoin="round"/>
<path d="M215.147 386.423C193.084 383.274 140.942 360.824 140.942 360.824C106.409 356.854 61.324 338.99 35.6982 321.742C31.4501 318.936 23.9817 314.692 19.665 312.091V308.327C27.065 288.341 41.0426 281.976 41.0426 281.976C47.2093 288.341 56.3907 294.227 63.5851 299.361C73.1776 306.274 82.8386 313.118 93.5274 318.183C104.216 323.248 114.836 325.301 127.101 326.123" stroke="#0017B3" stroke-width="3" stroke-miterlimit="10" stroke-linecap="round" stroke-linejoin="round"/>
<path d="M175.475 204.085C183.971 193.545 201.169 187.248 214.461 189.506" stroke="#0017B3" stroke-width="3" stroke-miterlimit="10" stroke-linecap="round" stroke-linejoin="round"/>
<path d="M129.911 215.858C131.624 222.908 131.487 229.752 129.226 236.46" stroke="#0017B3" stroke-width="3" stroke-miterlimit="10" stroke-linecap="round" stroke-linejoin="round"/>
<path d="M93.1162 246.932C100.105 247.411 107.436 247.822 114.014 245.358" stroke="#0017B3" stroke-width="3" stroke-miterlimit="10" stroke-linecap="round" stroke-linejoin="round"/>
<path d="M157.341 252.225C161.054 248.945 159.146 240.73 153.079 233.877C147.012 227.025 139.084 224.129 135.37 227.41C131.657 230.69 133.565 238.905 139.632 245.758C145.699 252.61 153.627 255.506 157.341 252.225Z" fill="#0017B3"/>
<path d="M118.85 280.506C122.134 276.796 119.236 268.876 112.376 262.816C105.516 256.755 97.2922 254.849 94.008 258.559C90.7239 262.268 93.6226 270.188 100.483 276.249C107.343 282.309 115.566 284.215 118.85 280.506Z" fill="#0017B3"/>
<path d="M52.0063 292.174C52.0063 292.174 37.412 306.068 33.2324 320.168L50.7045 330.777L67.834 303.81L52.0063 292.174Z" fill="#0017B3"/>
<path d="M138.955 333.241L122.031 357.607L140.942 360.893L166.568 326.054L167.664 313.597C167.733 313.529 156.633 333.652 138.955 333.241Z" fill="#0017B3"/>
<path d="M206.24 261.99C206.24 261.99 211.242 256.788 214.531 255.966L215.216 267.807L210.694 270.614L206.24 261.99Z" fill="#0017B3"/>
<path d="M126.486 327.355L110.727 353.021L91.3359 346.93L106.136 322.906L126.486 327.355Z" fill="#0017B3"/>
<path d="M65.5732 336.732L79.2083 344.192L93.7341 318.799L80.7157 310.586L65.5732 336.732Z" fill="#0017B3"/>
<path d="M161.978 367.532C161.978 367.532 196.374 317.499 215.147 294.296L214.462 325.575L180.203 376.361L161.978 367.532Z" fill="#0017B3"/>
<path d="M199.32 381.084L214.12 356.649V384.643L199.32 381.084Z" fill="#0017B3"/>
</g>
<defs>
<clipPath id="clip0_2251_8843">
<rect width="271" height="439" fill="white"/>
</clipPath>
</defs>
</svg>
