<svg width="248" height="250" viewBox="0 0 248 250" fill="none" xmlns="http://www.w3.org/2000/svg">
<ellipse cx="124.099" cy="125.139" rx="123.781" ry="124.268" fill="#0017B3"/>
<mask id="mask0_2261_10171" style="mask-type:alpha" maskUnits="userSpaceOnUse" x="0" y="0" width="248" height="250">
<ellipse cx="124.099" cy="125.139" rx="123.781" ry="124.268" fill="#0017B3"/>
</mask>
<g mask="url(#mask0_2261_10171)">
<path d="M73.9044 34.984C37.2576 50.1885 33.294 85.1785 35.893 100.773C27.3161 118.317 33.294 133.749 37.3551 139.272C34.6261 142.78 35.2433 145.607 35.893 146.581L37.3551 182.156C36.1855 194.632 43.0406 200.999 46.6143 202.624C55.1913 203.014 58.635 186.217 59.2847 177.77C57.3354 171.143 60.0969 171.76 61.7214 172.897L63.1833 166.562L70.0059 168.511V164.612L78.2904 163.15L66.5946 154.866L70.0059 151.455C72.7349 151.455 83.4885 157.627 88.5242 160.714C100.61 179.427 109.804 202.949 112.89 212.37C77.0234 213.15 67.0819 231.863 66.5946 241.122L108.017 251.844L152.851 248.92L183.065 232.838C199.05 212.565 189.725 187.679 183.065 177.77V174.359C183.845 170.85 177.542 157.627 174.293 151.455C221.856 157.692 235.047 128.388 235.696 112.956C239.985 90.3441 215.716 66.1728 203.046 56.9136C166.789 33.9119 137.257 43.431 127.023 51.0657L117.276 56.9136L114.84 51.0657C111.331 47.1671 111.429 43.5934 111.916 42.2939C114.255 36.446 107.043 34.0093 103.144 33.522C91.0583 30.793 78.6152 33.3596 73.9044 34.984Z" fill="white" stroke="white" stroke-width="7"/>
<path d="M107.7 78.9427C103.463 70.612 93.6957 66.5185 85.0059 64.2922C75.9571 61.9941 65.1846 60.4141 56.0639 63.7176C49.2414 66.1594 43.2088 71.9765 42.1316 79.0145C40.9107 86.9861 42.4907 99.9131 51.6113 101.924C57.1412 103.073 64.6101 101.78 70.2118 102.427C78.6143 103.36 91.5412 112.481 99.5128 106.664C107.844 100.631 112.224 87.9916 107.7 78.9427Z" fill="#DEE0F6" stroke="#3237CC" stroke-width="2.5" stroke-miterlimit="10" stroke-linecap="round" stroke-linejoin="round"/>
<path d="M101.852 91.1708C103.021 82.7635 99.6064 75.3411 94.2241 74.5923C88.8419 73.8435 83.5306 80.0519 82.361 88.4592C81.1913 96.8665 84.6063 104.289 89.9885 105.038C95.3707 105.786 100.682 99.578 101.852 91.1708Z" fill="white" stroke="#3237CC" stroke-width="2.5" stroke-miterlimit="10" stroke-linecap="round" stroke-linejoin="round"/>
<path d="M68.1437 83.636C68.2774 75.149 63.9812 68.1995 58.5479 68.114C53.1146 68.0284 48.6017 74.8392 48.468 83.3262C48.3344 91.8133 52.6306 98.7627 58.0639 98.8483C63.4972 98.9338 68.0101 92.1231 68.1437 83.636Z" fill="white" stroke="#3237CC" stroke-width="2.5" stroke-miterlimit="10" stroke-linecap="round" stroke-linejoin="round"/>
<path d="M68.7753 96.035C67.5544 96.1787 66.2617 96.3941 65.0409 96.5378C64.5382 96.6096 64.0354 96.6814 63.6045 97.0405C63.1018 97.4714 63.1018 98.2613 63.1736 98.9077C63.4609 100.272 64.2509 101.493 65.3999 102.139" stroke="#3237CC" stroke-width="2.5" stroke-miterlimit="10" stroke-linecap="round" stroke-linejoin="round"/>
<path d="M75.9995 127.825C85.6093 126.137 92.5763 120.082 91.5607 114.301C90.5452 108.519 81.9317 105.201 72.3219 106.889C62.7121 108.577 55.7451 114.632 56.7607 120.414C57.7762 126.195 66.3897 129.513 75.9995 127.825Z" fill="#DEE0F6" stroke="#3237CC" stroke-width="2.5" stroke-miterlimit="10" stroke-linecap="round" stroke-linejoin="round"/>
<path d="M99.7999 42.4601C97.9326 43.7528 96.3527 45.5482 95.2036 47.559" stroke="#3237CC" stroke-width="2.5" stroke-miterlimit="10" stroke-linecap="round" stroke-linejoin="round"/>
<path d="M102.745 45.7635C102.242 47.1999 101.955 48.708 101.883 50.2162" stroke="#3237CC" stroke-width="2.5" stroke-miterlimit="10" stroke-linecap="round" stroke-linejoin="round"/>
<path d="M64.897 117.724C67.5542 119.16 72.7968 117.652 75.3103 116.072C76.3158 115.425 77.1776 114.564 78.0394 113.702C79.1884 112.481 80.3375 111.188 80.9838 109.608C81.8456 111.476 82.2047 113.558 82.0611 115.641C81.9893 116.79 81.702 118.011 81.1275 119.016C80.6247 119.878 79.8348 120.596 78.973 121.243C76.6748 122.894 73.7304 123.541 71.0014 122.966C68.2723 122.32 65.9024 120.309 64.897 117.724Z" fill="white" stroke="#3237CC" stroke-width="2.5" stroke-miterlimit="10" stroke-linecap="round" stroke-linejoin="round"/>
<path d="M67.923 150.595C67.923 147.256 65.488 139.811 64.2704 136.507C54.6693 134.837 52.269 137.898 52.269 139.637C54.3562 139.637 53.8344 141.377 53.3126 142.246L53.8344 143.29C57.174 142.455 56.2695 144.681 55.3998 145.899L56.4434 146.421C61.4527 145.586 59.9221 148.856 58.5306 150.595L64.7922 154.248L67.923 150.595Z" fill="#DEE0F6"/>
<path d="M71.3608 117.867C72.4381 120.453 72.5099 120.381 73.659 122.894" stroke="#3237CC" stroke-width="2.5" stroke-miterlimit="10" stroke-linecap="round" stroke-linejoin="round"/>
<path d="M76.9624 114.851C77.9678 117.58 78.1115 118.729 78.9733 121.242" stroke="#3237CC" stroke-width="2.5" stroke-miterlimit="10" stroke-linecap="round" stroke-linejoin="round"/>
<path d="M92.6182 70.8993C89.7456 74.921 86.1548 77.8655 81.7021 79.6609" stroke="#3237CC" stroke-width="2.5" stroke-miterlimit="10" stroke-linecap="round" stroke-linejoin="round"/>
<path d="M60.3008 65.5848C63.1734 69.3911 66.1897 73.341 70.3551 75.6391" stroke="#3237CC" stroke-width="2.5" stroke-miterlimit="10" stroke-linecap="round" stroke-linejoin="round"/>
<path d="M53.694 160.454C50.3186 160.885 46.8714 159.664 44.1424 157.653C41.4134 155.642 39.3307 152.842 37.6071 149.897C36.3863 147.815 35.309 145.445 35.8835 143.075C36.1708 141.926 36.8172 140.92 37.5353 140.058C40.3362 136.683 45.0042 134.744 49.1696 135.821C48.5232 137.688 47.9487 139.627 47.3023 141.495C49.1696 140.92 51.1086 140.705 53.0476 140.848C52.2577 141.997 51.5395 143.218 50.965 144.511C52.4013 144.367 53.9094 144.224 55.3458 144.152C54.6994 145.301 54.2685 146.522 54.0531 147.815C55.7767 147.527 57.5721 147.527 59.2957 147.815C58.5775 148.964 57.9312 150.184 57.4284 151.477" fill="#DEE0F6"/>
<path d="M53.694 160.454C50.3186 160.885 46.8714 159.664 44.1424 157.653C41.4134 155.642 39.3307 152.842 37.6071 149.897C36.3863 147.815 35.309 145.445 35.8835 143.075C36.1708 141.926 36.8172 140.92 37.5353 140.058C40.3362 136.683 45.0042 134.744 49.1696 135.821C48.5232 137.688 47.9487 139.627 47.3023 141.495C49.1696 140.92 51.1086 140.705 53.0476 140.848C52.2577 141.997 51.5395 143.218 50.965 144.511C52.4013 144.367 53.9094 144.224 55.3458 144.152C54.6994 145.301 54.2685 146.522 54.0531 147.815C55.7767 147.527 57.5721 147.527 59.2957 147.815C58.5775 148.964 57.9312 150.184 57.4284 151.477" stroke="#3237CC" stroke-width="2.5" stroke-miterlimit="10" stroke-linecap="round" stroke-linejoin="round"/>
<path d="M57.5721 151.405C55.1303 150.975 52.6167 153.057 52.5449 155.571C55.4894 161.46 58.362 167.349 61.1629 173.309C61.9529 170.939 62.7428 168.498 63.5328 166.128C65.4719 166.99 67.4109 167.923 69.2781 168.785C68.9909 167.205 68.7754 165.625 68.7036 163.973C71.9353 163.83 75.0952 163.542 78.2552 163.04C71.5762 158.443 64.3946 154.637 56.8539 151.621" stroke="#3237CC" stroke-width="2.5" stroke-miterlimit="10" stroke-linecap="round" stroke-linejoin="round"/>
<path d="M51.1802 140.202C51.3238 138.694 52.4011 137.329 53.6937 136.539C54.9864 135.749 56.5664 135.39 58.0745 135.247C60.0854 135.031 62.0963 135.031 64.1071 135.247" stroke="#3237CC" stroke-width="2.5" stroke-miterlimit="10" stroke-linecap="round" stroke-linejoin="round"/>
<path d="M65.041 135.606C67.4828 140.418 68.8473 145.66 69.2064 151.046" stroke="#3237CC" stroke-width="2.5" stroke-miterlimit="10" stroke-linecap="round" stroke-linejoin="round"/>
<path d="M65.7588 154.493C66.7642 153.201 67.9851 152.052 69.2778 151.046" stroke="#3237CC" stroke-width="2.5" stroke-miterlimit="10" stroke-linecap="round" stroke-linejoin="round"/>
<path d="M37.2481 138.191C34.6627 135.247 33.2982 131.369 32.58 127.491C30.9282 118.801 32.0773 109.608 35.8836 101.637" stroke="#3237CC" stroke-width="2.5" stroke-miterlimit="10" stroke-linecap="round" stroke-linejoin="round"/>
<path d="M36.5296 148.245C36.4578 156.289 36.8887 164.332 36.8169 172.376C36.8169 175.32 36.745 178.337 36.8169 181.281C36.8169 184.585 36.8887 187.96 37.7505 191.192C38.9713 195.716 41.7722 199.881 45.5784 202.682C48.882 203.329 51.8265 200.6 53.6219 197.727C57.2845 191.982 58.5772 184.944 58.7208 178.121C58.7926 175.033 58.649 171.945 59.0799 168.929" stroke="#3237CC" stroke-width="2.5" stroke-miterlimit="10" stroke-linecap="round" stroke-linejoin="round"/>
<path d="M70.2832 150.831C77.9675 153.416 85.0774 157.438 92.1872 161.46C98.6506 165.122 105.042 168.785 111.506 172.376C121.273 177.906 131.83 183.651 143.033 182.574" stroke="#3237CC" stroke-width="2.5" stroke-miterlimit="10" stroke-linecap="round" stroke-linejoin="round"/>
<path d="M135.995 131.584C142.746 137.976 148.276 145.804 152.01 154.35C153.877 158.587 155.314 163.111 155.386 167.78C155.457 172.448 154.021 177.187 150.717 180.491" stroke="#3237CC" stroke-width="2.5" stroke-miterlimit="10" stroke-linecap="round" stroke-linejoin="round"/>
<path d="M79.5479 136.611C96.4965 142.357 113.014 149.179 129.101 157.079" stroke="#3237CC" stroke-width="2.5" stroke-miterlimit="10" stroke-linecap="round" stroke-linejoin="round"/>
<path d="M86.5137 158.3C97.2861 174.961 106.838 192.987 113.014 211.803C126.587 212.665 140.232 206.193 151.938 199.227C163.644 192.26 173.627 184.872 182.604 174.674L182.317 172.376C164.363 123.541 125.654 113.199 125.654 113.199C119.477 111.045 114.091 109.896 108.489 111.619C103.75 113.055 99.5842 117.867 99.5842 122.894C99.5842 125.767 100.59 128.568 101.954 131.081C106.694 140.058 115.527 146.306 124.002 152.195" stroke="#3237CC" stroke-width="2.5" stroke-miterlimit="10" stroke-linecap="round" stroke-linejoin="round"/>
<path d="M99.6563 125.121C97.7173 127.06 95.6346 128.927 93.3365 130.507C83.7131 137.258 72.2225 137.976 61.1628 134.313C36.817 126.126 31.4308 95.9632 37.8225 73.9874C41.8442 60.2705 51.2521 47.9181 63.1736 40.1619C73.0843 33.6985 84.934 31.1849 96.64 32.6212C100.805 33.1239 104.899 34.0575 108.849 35.3502C115.384 37.5047 109.495 43.3218 113.301 48.8517C119.693 58.0442 120.196 70.612 118.903 81.3845C117.969 89.4997 115.743 98.0459 112.296 105.946C111.506 107.669 110.716 109.393 109.782 111.116" stroke="#3237CC" stroke-width="2.5" stroke-miterlimit="10" stroke-linecap="round" stroke-linejoin="round"/>
<path d="M122.709 153.273C125.295 152.626 127.952 152.195 130.537 151.836" stroke="#3237CC" stroke-width="2.5" stroke-miterlimit="10" stroke-linecap="round" stroke-linejoin="round"/>
<path d="M117.251 56.6796C121.273 54.7406 126.229 50.7189 130.178 48.6362C147.199 39.9464 168.456 40.0901 186.267 47.1999C204.077 54.3097 218.512 67.883 228.208 83.7544C231.08 88.4943 233.666 93.5214 235.03 98.8358C238.98 113.774 233.235 130.507 221.241 140.92C209.248 151.334 189.499 154.565 171.616 150.903" stroke="#3237CC" stroke-width="2.5" stroke-miterlimit="10" stroke-linecap="round" stroke-linejoin="round"/>
<path d="M100.992 93.2131C101.85 87.0451 99.8389 81.6684 96.4995 81.2038C93.1602 80.7393 89.7575 85.3627 88.8994 91.5307C88.0413 97.6986 90.0528 103.075 93.3921 103.54C96.7314 104.004 100.134 99.381 100.992 93.2131Z" fill="#3237CC"/>
<path d="M68.0213 85.0196C68.1193 78.7932 65.4661 73.7026 62.095 73.6495C58.724 73.5964 55.9118 78.6009 55.8137 84.8274C55.7157 91.0539 58.369 96.1445 61.74 96.1975C65.111 96.2506 67.9233 91.2461 68.0213 85.0196Z" fill="#3237CC"/>
<path d="M38.0381 188.534C38.0381 188.534 46.297 194.423 56.2076 188.534C56.2076 188.534 55.274 199.81 47.0869 202.108C47.1588 202.108 40.3362 201.533 38.0381 188.534Z" fill="#3237CC"/>
<path d="M58.2184 169.216V181.999C58.2184 181.999 42.1316 182.574 37.248 178.336V164.404C37.248 164.404 49.4568 168.282 57.0693 166.774L58.2184 169.216Z" fill="#3237CC"/>
<path d="M77.3936 136.755C77.3936 136.755 81.7025 148.174 80.5535 154.565L92.1159 161.46C92.1159 161.46 94.8449 152.339 90.6796 140.633L77.3936 136.755Z" fill="#3237CC"/>
<path d="M103.678 146.378C103.678 146.378 106.551 158.3 104.899 167.851L118.544 175.464C118.544 175.464 120.268 166.918 118.041 152.267L103.678 146.378Z" fill="#3237CC"/>
<path d="M125.726 156.504C125.726 156.504 130.178 170.868 129.101 180.06C129.101 180.06 136.354 182.789 141.741 181.999C141.741 181.999 137.144 164.835 129.675 157.941L125.726 156.504Z" fill="#3237CC"/>
<path d="M128.096 155.212C128.096 155.212 145.906 152.267 151.58 155.283C151.58 155.283 156.679 163.83 154.093 171.729C154.093 171.729 133.985 164.332 127.809 157.079L128.096 155.212Z" fill="#3237CC"/>
<path d="M123.141 150.831C123.141 150.831 131.471 143.793 143.752 141.854L135.421 132.446C135.421 132.446 117.108 138.335 114.235 144.008L123.141 150.831Z" fill="#3237CC"/>
<path d="M108.131 138.191C108.131 138.191 108.777 128.209 135.277 118.011L121.704 111.906C121.704 111.906 106.12 120.524 101.165 129.573L108.131 138.191Z" fill="#3237CC"/>
<path d="M140.305 134.313C140.305 134.313 146.05 129.358 150.215 127.85C150.215 127.85 159.408 135.821 161.275 138.191C161.275 138.191 150.359 143.721 148.923 146.881L140.305 134.313Z" fill="#3237CC"/>
<path d="M95.4912 171.729L101.165 167.708L112.943 174.53L102.098 182.645L95.4912 171.729Z" fill="#3237CC"/>
<path d="M107.916 195.357L131.399 182.789C131.399 182.789 140.807 182.645 150 178.911C150 178.911 158.115 173.309 155.745 162.321L170.252 150.831C170.252 150.831 177.218 160.167 179.229 167.133C179.229 167.133 149.282 198.876 112.368 206.919L107.916 195.357Z" fill="#3237CC"/>
<path d="M115.168 211.875C105.258 212.808 93.839 214.963 83.9284 219.415C77.1776 222.504 70.8578 227.603 68.4878 234.569C65.9025 242.109 68.4879 250.368 71.4323 257.837C77.3931 273.278 99.7998 305.81 110.141 321.969" stroke="#3237CC" stroke-width="2.5" stroke-miterlimit="10" stroke-linecap="round" stroke-linejoin="round"/>
<path d="M174.13 241.535C173.771 245.916 174.417 250.368 175.997 254.462C176.284 255.18 176.572 255.826 177.146 256.329C177.721 256.832 182.532 260.853 183.25 261.284C196.106 268.107 210.325 280.387 221.6 286.779" stroke="#3237CC" stroke-width="2.5" stroke-miterlimit="10" stroke-linecap="round" stroke-linejoin="round"/>
<path d="M111.147 323.836C119.19 324.698 127.593 320.245 131.399 313.136L131.471 312.202C124.72 297.767 115.025 273.062 105.258 256.329C123.786 256.329 142.818 256.185 159.91 249.076C177.002 241.966 191.868 226.238 192.012 207.709C192.084 197.009 187.416 186.954 182.891 177.331" stroke="#3237CC" stroke-width="2.5" stroke-miterlimit="10" stroke-linecap="round" stroke-linejoin="round"/>
</g>
</svg>
