<svg width="298" height="325" viewBox="0 0 298 325" fill="none" xmlns="http://www.w3.org/2000/svg">
<circle cx="146.099" cy="176.652" r="134.781" stroke="#0017B3" stroke-opacity="0.05" stroke-width="22"/>
<circle cx="146.098" cy="176.652" r="134.781" transform="rotate(-180 146.098 176.652)" stroke="url(#paint0_angular_2262_10271)" stroke-width="22"/>
<ellipse cx="146.099" cy="177.139" rx="123.781" ry="124.268" fill="#0017B3"/>
<mask id="mask0_2262_10271" style="mask-type:alpha" maskUnits="userSpaceOnUse" x="22" y="52" width="248" height="250">
<ellipse cx="146.099" cy="177.139" rx="123.781" ry="124.268" fill="#0017B3"/>
</mask>
<g mask="url(#mask0_2262_10271)">
<path d="M95.9044 86.9841C59.2576 102.189 55.294 137.179 57.893 152.773C49.3161 170.317 55.294 185.749 59.3551 191.272C56.6261 194.78 57.2433 197.607 57.893 198.582L59.3551 234.156C58.1855 246.632 65.0406 252.999 68.6143 254.624C77.1913 255.014 80.635 238.217 81.2847 229.77C79.3354 223.143 82.0969 223.76 83.7214 224.897L85.1833 218.562L92.0059 220.511V216.613L100.29 215.151L88.5946 206.866L92.0059 203.455C94.7349 203.455 105.489 209.628 110.524 212.714C122.61 231.427 131.804 254.949 134.89 264.37C99.0234 265.15 89.0819 283.863 88.5946 293.123L130.017 303.844L174.851 300.92L205.065 284.838C221.05 264.565 211.725 239.679 205.065 229.77V226.359C205.845 222.85 199.542 209.628 196.293 203.455C243.856 209.693 257.047 180.388 257.696 164.956C261.985 142.344 237.716 118.173 225.046 108.914C188.789 85.912 159.257 95.4311 149.023 103.066L139.276 108.914L136.84 103.066C133.331 99.1672 133.429 95.5935 133.916 94.294C136.255 88.4461 129.043 86.0095 125.144 85.5221C113.058 82.7931 100.615 85.3597 95.9044 86.9841Z" fill="white" stroke="white" stroke-width="7"/>
<path d="M129.7 130.943C125.463 122.612 115.696 118.519 107.006 116.292C97.9571 113.994 87.1846 112.414 78.0639 115.718C71.2414 118.16 65.2088 123.977 64.1316 131.015C62.9107 138.986 64.4907 151.913 73.6113 153.924C79.1412 155.073 86.6101 153.78 92.2118 154.427C100.614 155.36 113.541 164.481 121.513 158.664C129.844 152.631 134.224 139.992 129.7 130.943Z" fill="#DEE0F6" stroke="#3237CC" stroke-width="2.5" stroke-miterlimit="10" stroke-linecap="round" stroke-linejoin="round"/>
<path d="M123.852 143.171C125.021 134.764 121.606 127.341 116.224 126.592C110.842 125.844 105.531 132.052 104.361 140.459C103.191 148.867 106.606 156.289 111.989 157.038C117.371 157.787 122.682 151.578 123.852 143.171Z" fill="white" stroke="#3237CC" stroke-width="2.5" stroke-miterlimit="10" stroke-linecap="round" stroke-linejoin="round"/>
<path d="M90.1442 135.636C90.2779 127.149 85.9816 120.2 80.5483 120.114C75.1151 120.029 70.6022 126.839 70.4685 135.326C70.3349 143.813 74.6311 150.763 80.0644 150.848C85.4977 150.934 90.0106 144.123 90.1442 135.636Z" fill="white" stroke="#3237CC" stroke-width="2.5" stroke-miterlimit="10" stroke-linecap="round" stroke-linejoin="round"/>
<path d="M90.7753 148.035C89.5544 148.179 88.2617 148.394 87.0409 148.538C86.5382 148.61 86.0354 148.682 85.6045 149.041C85.1018 149.471 85.1018 150.261 85.1736 150.908C85.4609 152.272 86.2509 153.493 87.3999 154.14" stroke="#3237CC" stroke-width="2.5" stroke-miterlimit="10" stroke-linecap="round" stroke-linejoin="round"/>
<path d="M97.9995 179.826C107.609 178.138 114.576 172.082 113.561 166.301C112.545 160.519 103.932 157.201 94.3219 158.889C84.7121 160.577 77.7451 166.632 78.7607 172.414C79.7762 178.195 88.3897 181.514 97.9995 179.826Z" fill="#DEE0F6" stroke="#3237CC" stroke-width="2.5" stroke-miterlimit="10" stroke-linecap="round" stroke-linejoin="round"/>
<path d="M121.8 94.4602C119.933 95.7529 118.353 97.5483 117.204 99.5592" stroke="#3237CC" stroke-width="2.5" stroke-miterlimit="10" stroke-linecap="round" stroke-linejoin="round"/>
<path d="M124.745 97.7637C124.242 99.2 123.955 100.708 123.883 102.216" stroke="#3237CC" stroke-width="2.5" stroke-miterlimit="10" stroke-linecap="round" stroke-linejoin="round"/>
<path d="M86.8975 169.724C89.5547 171.16 94.7973 169.652 97.3108 168.072C98.3163 167.426 99.1781 166.564 100.04 165.702C101.189 164.481 102.338 163.188 102.984 161.608C103.846 163.476 104.205 165.558 104.062 167.641C103.99 168.79 103.702 170.011 103.128 171.016C102.625 171.878 101.835 172.596 100.973 173.243C98.6753 174.894 95.7309 175.541 93.0018 174.966C90.2728 174.32 87.9029 172.309 86.8975 169.724Z" fill="white" stroke="#3237CC" stroke-width="2.5" stroke-miterlimit="10" stroke-linecap="round" stroke-linejoin="round"/>
<path d="M89.9235 202.595C89.9235 199.256 87.4884 191.811 86.2709 188.507C76.6698 186.837 74.2695 189.898 74.2695 191.637C76.3567 191.637 75.8349 193.377 75.3131 194.246L75.8349 195.29C79.1744 194.455 78.27 196.682 77.4003 197.899L78.4439 198.421C83.4532 197.586 81.9226 200.856 80.5311 202.595L86.7927 206.248L89.9235 202.595Z" fill="#DEE0F6"/>
<path d="M93.3604 169.867C94.4376 172.453 94.5094 172.381 95.6585 174.894" stroke="#3237CC" stroke-width="2.5" stroke-miterlimit="10" stroke-linecap="round" stroke-linejoin="round"/>
<path d="M98.9619 166.851C99.9673 169.58 100.111 170.729 100.973 173.243" stroke="#3237CC" stroke-width="2.5" stroke-miterlimit="10" stroke-linecap="round" stroke-linejoin="round"/>
<path d="M114.618 122.899C111.746 126.921 108.155 129.866 103.702 131.661" stroke="#3237CC" stroke-width="2.5" stroke-miterlimit="10" stroke-linecap="round" stroke-linejoin="round"/>
<path d="M82.3008 117.585C85.1734 121.391 88.1897 125.341 92.3551 127.639" stroke="#3237CC" stroke-width="2.5" stroke-miterlimit="10" stroke-linecap="round" stroke-linejoin="round"/>
<path d="M75.694 212.454C72.3186 212.885 68.8714 211.664 66.1424 209.653C63.4134 207.643 61.3307 204.842 59.6071 201.897C58.3863 199.815 57.309 197.445 57.8835 195.075C58.1708 193.926 58.8172 192.92 59.5353 192.058C62.3362 188.683 67.0042 186.744 71.1696 187.821C70.5232 189.689 69.9487 191.628 69.3023 193.495C71.1696 192.92 73.1086 192.705 75.0476 192.848C74.2577 193.998 73.5395 195.218 72.965 196.511C74.4013 196.367 75.9094 196.224 77.3458 196.152C76.6994 197.301 76.2685 198.522 76.0531 199.815C77.7767 199.527 79.5721 199.527 81.2957 199.815C80.5775 200.964 79.9312 202.185 79.4284 203.477" fill="#DEE0F6"/>
<path d="M75.694 212.454C72.3186 212.885 68.8714 211.664 66.1424 209.653C63.4134 207.643 61.3307 204.842 59.6071 201.897C58.3863 199.815 57.309 197.445 57.8835 195.075C58.1708 193.926 58.8172 192.92 59.5353 192.058C62.3362 188.683 67.0042 186.744 71.1696 187.821C70.5232 189.689 69.9487 191.628 69.3023 193.495C71.1696 192.92 73.1086 192.705 75.0476 192.848C74.2577 193.998 73.5395 195.218 72.965 196.511C74.4013 196.367 75.9094 196.224 77.3458 196.152C76.6994 197.301 76.2685 198.522 76.0531 199.815C77.7767 199.527 79.5721 199.527 81.2957 199.815C80.5775 200.964 79.9312 202.185 79.4284 203.477" stroke="#3237CC" stroke-width="2.5" stroke-miterlimit="10" stroke-linecap="round" stroke-linejoin="round"/>
<path d="M79.5721 203.406C77.1303 202.975 74.6167 205.057 74.5449 207.571C77.4894 213.46 80.362 219.349 83.1629 225.31C83.9529 222.94 84.7428 220.498 85.5328 218.128C87.4719 218.99 89.4109 219.923 91.2781 220.785C90.9909 219.205 90.7754 217.625 90.7036 215.973C93.9353 215.83 97.0952 215.543 100.255 215.04C93.5762 210.444 86.3946 206.637 78.8539 203.621" stroke="#3237CC" stroke-width="2.5" stroke-miterlimit="10" stroke-linecap="round" stroke-linejoin="round"/>
<path d="M73.1807 192.202C73.3243 190.694 74.4015 189.329 75.6942 188.539C76.9869 187.75 78.5669 187.39 80.075 187.247C82.0859 187.031 84.0967 187.031 86.1076 187.247" stroke="#3237CC" stroke-width="2.5" stroke-miterlimit="10" stroke-linecap="round" stroke-linejoin="round"/>
<path d="M87.041 187.606C89.4828 192.418 90.8473 197.66 91.2064 203.046" stroke="#3237CC" stroke-width="2.5" stroke-miterlimit="10" stroke-linecap="round" stroke-linejoin="round"/>
<path d="M87.7588 206.494C88.7642 205.201 89.9851 204.052 91.2778 203.046" stroke="#3237CC" stroke-width="2.5" stroke-miterlimit="10" stroke-linecap="round" stroke-linejoin="round"/>
<path d="M59.2481 190.191C56.6627 187.247 55.2982 183.369 54.58 179.491C52.9282 170.801 54.0773 161.608 57.8836 153.637" stroke="#3237CC" stroke-width="2.5" stroke-miterlimit="10" stroke-linecap="round" stroke-linejoin="round"/>
<path d="M58.5296 200.246C58.4578 208.289 58.8887 216.332 58.8169 224.376C58.8169 227.32 58.745 230.337 58.8169 233.281C58.8169 236.585 58.8887 239.96 59.7505 243.192C60.9713 247.716 63.7722 251.882 67.5784 254.682C70.882 255.329 73.8265 252.6 75.6219 249.727C79.2845 243.982 80.5772 236.944 80.7208 230.121C80.7926 227.033 80.649 223.945 81.0799 220.929" stroke="#3237CC" stroke-width="2.5" stroke-miterlimit="10" stroke-linecap="round" stroke-linejoin="round"/>
<path d="M92.2832 202.831C99.9675 205.416 107.077 209.438 114.187 213.46C120.651 217.122 127.042 220.785 133.506 224.376C143.273 229.906 153.83 235.651 165.033 234.574" stroke="#3237CC" stroke-width="2.5" stroke-miterlimit="10" stroke-linecap="round" stroke-linejoin="round"/>
<path d="M157.995 183.584C164.746 189.976 170.276 197.804 174.01 206.35C175.877 210.587 177.314 215.112 177.386 219.78C177.457 224.448 176.021 229.188 172.717 232.491" stroke="#3237CC" stroke-width="2.5" stroke-miterlimit="10" stroke-linecap="round" stroke-linejoin="round"/>
<path d="M101.548 188.611C118.497 194.357 135.014 201.179 151.101 209.079" stroke="#3237CC" stroke-width="2.5" stroke-miterlimit="10" stroke-linecap="round" stroke-linejoin="round"/>
<path d="M108.514 210.3C119.286 226.961 128.838 244.987 135.014 263.803C148.587 264.665 162.232 258.193 173.938 251.227C185.644 244.261 195.627 236.872 204.604 226.674L204.317 224.376C186.363 175.541 147.654 165.199 147.654 165.199C141.477 163.045 136.091 161.896 130.489 163.619C125.75 165.056 121.584 169.867 121.584 174.894C121.584 177.767 122.59 180.568 123.954 183.081C128.694 192.058 137.527 198.306 146.002 204.195" stroke="#3237CC" stroke-width="2.5" stroke-miterlimit="10" stroke-linecap="round" stroke-linejoin="round"/>
<path d="M121.656 177.121C119.717 179.06 117.634 180.927 115.336 182.507C105.713 189.258 94.222 189.976 83.1623 186.313C58.8165 178.126 53.4303 147.963 59.822 125.988C63.8437 112.271 73.2516 99.9182 85.1731 92.1621C95.0838 85.6986 106.933 83.185 118.64 84.6213C122.805 85.1241 126.898 86.0577 130.848 87.3504C137.384 89.5048 131.495 95.322 135.301 100.852C141.693 110.044 142.195 122.612 140.903 133.385C139.969 141.5 137.743 150.046 134.295 157.946C133.505 159.669 132.716 161.393 131.782 163.117" stroke="#3237CC" stroke-width="2.5" stroke-miterlimit="10" stroke-linecap="round" stroke-linejoin="round"/>
<path d="M144.709 205.273C147.294 204.626 149.952 204.196 152.537 203.836" stroke="#3237CC" stroke-width="2.5" stroke-miterlimit="10" stroke-linecap="round" stroke-linejoin="round"/>
<path d="M139.251 108.68C143.273 106.741 148.228 102.719 152.178 100.636C169.198 91.9466 190.456 92.0902 208.266 99.2C226.077 106.31 240.512 119.883 250.207 135.755C253.08 140.494 255.665 145.522 257.03 150.836C260.98 165.774 255.234 182.507 243.241 192.92C231.248 203.334 211.498 206.565 193.616 202.903" stroke="#3237CC" stroke-width="2.5" stroke-miterlimit="10" stroke-linecap="round" stroke-linejoin="round"/>
<path d="M122.993 145.213C123.851 139.045 121.84 133.669 118.501 133.204C115.161 132.739 111.758 137.363 110.9 143.531C110.042 149.699 112.054 155.075 115.393 155.54C118.732 156.005 122.135 151.381 122.993 145.213Z" fill="#3237CC"/>
<path d="M90.0218 137.02C90.1198 130.793 87.4666 125.703 84.0955 125.65C80.7245 125.597 77.9123 130.601 77.8142 136.828C77.7162 143.054 80.3695 148.145 83.7405 148.198C87.1115 148.251 89.9237 143.246 90.0218 137.02Z" fill="#3237CC"/>
<path d="M60.0381 240.535C60.0381 240.535 68.297 246.423 78.2076 240.535C78.2076 240.535 77.274 251.81 69.0869 254.108C69.1588 254.108 62.3362 253.533 60.0381 240.535Z" fill="#3237CC"/>
<path d="M80.2184 221.216V233.999C80.2184 233.999 64.1316 234.574 59.248 230.337V216.404C59.248 216.404 71.4568 220.282 79.0693 218.774L80.2184 221.216Z" fill="#3237CC"/>
<path d="M99.3936 188.755C99.3936 188.755 103.703 200.174 102.553 206.565L114.116 213.46C114.116 213.46 116.845 204.339 112.68 192.633L99.3936 188.755Z" fill="#3237CC"/>
<path d="M125.678 198.378C125.678 198.378 128.55 210.3 126.899 219.851L140.544 227.464C140.544 227.464 142.267 218.918 140.041 204.267L125.678 198.378Z" fill="#3237CC"/>
<path d="M147.726 208.504C147.726 208.504 152.178 222.868 151.101 232.06C151.101 232.06 158.354 234.789 163.741 233.999C163.741 233.999 159.144 216.835 151.675 209.941L147.726 208.504Z" fill="#3237CC"/>
<path d="M150.096 207.212C150.096 207.212 167.906 204.267 173.58 207.284C173.58 207.284 178.679 215.83 176.093 223.729C176.093 223.729 155.985 216.332 149.809 209.079L150.096 207.212Z" fill="#3237CC"/>
<path d="M145.141 202.831C145.141 202.831 153.471 195.793 165.752 193.854L157.421 184.446C157.421 184.446 139.108 190.335 136.235 196.008L145.141 202.831Z" fill="#3237CC"/>
<path d="M130.131 190.191C130.131 190.191 130.778 180.209 157.278 170.011L143.705 163.906C143.705 163.906 128.12 172.524 123.165 181.573L130.131 190.191Z" fill="#3237CC"/>
<path d="M162.305 186.313C162.305 186.313 168.05 181.358 172.215 179.85C172.215 179.85 181.408 187.821 183.275 190.191C183.275 190.191 172.359 195.721 170.923 198.881L162.305 186.313Z" fill="#3237CC"/>
<path d="M117.491 223.729L123.165 219.708L134.943 226.53L124.098 234.646L117.491 223.729Z" fill="#3237CC"/>
<path d="M129.915 247.357L153.399 234.789C153.399 234.789 162.807 234.646 171.999 230.911C171.999 230.911 180.115 225.309 177.745 214.322L192.252 202.831C192.252 202.831 199.218 212.167 201.229 219.133C201.229 219.133 171.281 250.876 134.368 258.919L129.915 247.357Z" fill="#3237CC"/>
<path d="M137.168 263.875C127.258 264.808 115.839 266.963 105.928 271.415C99.1776 274.504 92.8578 279.603 90.4878 286.569C87.9025 294.109 90.4879 302.368 93.4323 309.837C99.3931 325.278 121.8 357.81 132.141 373.969" stroke="#3237CC" stroke-width="2.5" stroke-miterlimit="10" stroke-linecap="round" stroke-linejoin="round"/>
<path d="M196.13 293.535C195.771 297.916 196.417 302.368 197.997 306.462C198.284 307.18 198.572 307.826 199.146 308.329C199.721 308.832 204.532 312.853 205.25 313.284C218.106 320.107 232.325 332.388 243.6 338.779" stroke="#3237CC" stroke-width="2.5" stroke-miterlimit="10" stroke-linecap="round" stroke-linejoin="round"/>
<path d="M133.147 375.836C141.19 376.698 149.593 372.246 153.399 365.136L153.471 364.202C146.72 349.767 137.025 325.062 127.258 308.329C145.786 308.329 164.818 308.185 181.91 301.076C199.002 293.966 213.868 278.238 214.012 259.709C214.084 249.009 209.416 238.955 204.891 229.331" stroke="#3237CC" stroke-width="2.5" stroke-miterlimit="10" stroke-linecap="round" stroke-linejoin="round"/>
</g>
<path d="M169.49 38.8158C173.727 36.9485 177.965 35.0095 181.699 32.3523C185.505 29.6951 188.809 26.2479 190.748 22.0826C192.543 18.1327 193.046 13.6801 195.129 9.94561C197.57 5.56482 202.167 2.4049 207.194 2.18945L224.358 18.2763C221.126 17.8454 214.806 20.5026 212.724 22.9444C210.569 25.4579 209.42 28.6178 208.558 31.8496C207.697 35.0095 207.05 38.313 205.757 41.3293C203.603 46.5001 199.509 50.8809 194.482 53.3945C194.267 53.4663 194.051 53.6099 193.836 53.6099C193.477 53.6099 193.118 53.3945 192.759 53.179L169.49 38.8158Z" fill="#DEE0F6" stroke="#3237CC" stroke-width="2.5" stroke-miterlimit="10" stroke-linecap="round" stroke-linejoin="round"/>
<path d="M210.321 24.1447L195.901 12.0322C196.805 7.51618 201.669 3.95728 206.86 3.38049L221.28 17.2233C214.359 18.9536 211.667 21.453 210.321 24.1447Z" fill="white"/>
<ellipse cx="193.846" cy="40.4481" rx="5.66511" ry="5.72936" transform="rotate(29.3085 193.846 40.4481)" fill="#3237CC"/>
<ellipse rx="3.43854" ry="3.47754" transform="matrix(-0.871996 -0.489512 -0.489512 0.871996 188.49 36.9353)" fill="#3237CC"/>
<path d="M194.094 28.043L194.14 30.159L194.886 30.6334L194.847 28.5708L194.869 28.5359L200.062 31.8378L200.536 31.0919L194.569 27.2971L194.094 28.043Z" fill="#3237CC"/>
<path d="M202.824 26.5067C203.665 25.1839 203.038 23.7126 201.086 22.4711C199.151 21.2408 197.527 21.2969 196.694 22.6081C195.86 23.9193 196.497 25.4133 198.432 26.6437C200.384 27.8851 201.983 27.8296 202.824 26.5067ZM202.166 26.0879C201.617 26.9504 200.436 26.9031 198.892 25.921C197.347 24.939 196.796 23.8761 197.34 23.0195C197.885 22.1628 199.082 22.2117 200.626 23.1938C202.17 24.1758 202.714 25.2255 202.166 26.0879Z" fill="#3237CC"/>
<path d="M205.845 20.319C206.825 19.0956 206.362 17.5648 204.556 16.1181C202.767 14.6845 201.147 14.5635 200.175 15.7762C199.204 16.9888 199.675 18.5433 201.464 19.977C203.27 21.4236 204.865 21.5424 205.845 20.319ZM205.236 19.831C204.597 20.6287 203.428 20.4531 202 19.3087C200.572 18.1644 200.139 17.0477 200.774 16.2555C201.408 15.4632 202.593 15.6421 204.021 16.7864C205.449 17.9308 205.875 19.0334 205.236 19.831Z" fill="#3237CC"/>
<path d="M210.585 15.2492C211.636 14.0863 211.265 12.5306 209.548 10.9791C207.848 9.44156 206.238 9.22446 205.196 10.3771C204.154 11.5298 204.532 13.1096 206.232 14.6472C207.949 16.1987 209.534 16.4121 210.585 15.2492ZM210.006 14.7259C209.321 15.4841 208.164 15.2392 206.807 14.012C205.449 12.7847 205.084 11.6443 205.764 10.8912C206.445 10.1381 207.617 10.3871 208.974 11.6144C210.332 12.8417 210.692 13.9677 210.006 14.7259Z" fill="#3237CC"/>
<path d="M248.601 54.6666C251.474 48.3468 257.147 43.3196 263.826 41.3806C268.279 40.0161 273.09 40.0161 277.759 40.447C281.852 40.8061 286.233 41.3806 289.752 39.2979C293.055 37.2871 294.635 33.4808 296 29.89L278.405 11.9359C278.333 14.5213 276.825 16.8194 274.814 18.4712C272.803 20.123 270.361 20.9848 267.92 21.7747C263.97 22.9956 259.948 23.7856 255.855 24.2165C253.772 24.4319 251.617 24.5038 249.678 25.1501C244.148 27.0173 240.989 32.7626 238.69 38.1489L248.601 54.6666Z" fill="#DEE0F6" stroke="#3237CC" stroke-width="2.5" stroke-miterlimit="10" stroke-linecap="round" stroke-linejoin="round"/>
<ellipse cx="251.455" cy="38.4152" rx="4.4396" ry="4.48995" transform="rotate(45.6858 251.455 38.4152)" fill="#3237CC"/>
<ellipse rx="2.69469" ry="2.72525" transform="matrix(-0.698592 -0.71552 -0.71552 0.698592 248.205 34.5902)" fill="#3237CC"/>
<path d="M294.552 30.1814L278.979 14.6082C278.056 18.761 272.442 21.7218 269.75 22.6832L281.286 39.4099C289.591 40.7942 293.59 33.8343 294.552 30.1814Z" fill="white"/>
<path d="M256.302 29.2877L255.267 31.134L255.669 31.9214L256.682 30.1247L256.719 30.1059L259.516 35.5867L260.304 35.1849L257.089 28.8859L256.302 29.2877Z" fill="#3237CC"/>
<path d="M265.215 34.4446C266.663 33.844 266.993 32.279 266.107 30.1419C265.228 28.0241 263.866 27.1384 262.431 27.7337C260.996 28.329 260.661 29.9184 261.539 32.0363C262.425 34.1733 263.766 35.0452 265.215 34.4446ZM264.916 33.7237C263.971 34.1153 263.031 33.3987 262.33 31.7082C261.629 30.0178 261.787 28.8307 262.725 28.4418C263.663 28.0528 264.614 28.7795 265.316 30.47C266.017 32.1605 265.86 33.3321 264.916 33.7237Z" fill="#3237CC"/>
<path d="M272.298 33.2531C273.703 32.5577 273.929 30.9742 272.902 28.9008C271.885 26.8459 270.468 26.0526 269.075 26.7418C267.683 27.4311 267.454 29.0393 268.471 31.0942C269.497 33.1677 270.893 33.9485 272.298 33.2531ZM271.952 32.5537C271.036 33.0071 270.05 32.3545 269.238 30.7143C268.427 29.0741 268.505 27.8792 269.415 27.4289C270.325 26.9785 271.323 27.6404 272.135 29.2806C272.947 30.9208 272.868 32.1003 271.952 32.5537Z" fill="#3237CC"/>
<path d="M279.845 30.8554C281.188 30.046 281.281 28.4492 280.087 26.4679C278.903 24.5044 277.425 23.8313 276.094 24.6336C274.763 25.4359 274.668 27.0576 275.852 29.0211C277.047 31.0024 278.503 31.6649 279.845 30.8554ZM279.442 30.1871C278.567 30.7149 277.53 30.1462 276.586 28.5789C275.641 27.0117 275.62 25.8143 276.49 25.2901C277.359 24.7659 278.408 25.3428 279.353 26.9101C280.298 28.4774 280.317 29.6594 279.442 30.1871Z" fill="#3237CC"/>
<defs>
<radialGradient id="paint0_angular_2262_10271" cx="0" cy="0" r="1" gradientUnits="userSpaceOnUse" gradientTransform="translate(146.098 176.652) rotate(90) scale(123.781)">
<stop stop-color="#0017B3"/>
<stop offset="1" stop-color="#0017B3" stop-opacity="0"/>
</radialGradient>
</defs>
</svg>
