<svg width="261" height="89" viewBox="0 0 261 89" fill="none" xmlns="http://www.w3.org/2000/svg">
<g filter="url(#filter0_d_2262_10268)">
<rect x="22" y="22" width="217" height="45" rx="6" fill="#0017B3" stroke="white" stroke-width="4"/>
<path d="M116.665 50.416V45.856H99.025V46.84H112.705V49.432H99.025V54.832H116.665V53.848H102.985V50.416H116.665ZM104.473 39.016H104.161C103.921 39.04 103.657 39.016 103.345 38.944C103.033 38.848 102.721 38.752 102.409 38.608C102.097 38.464 101.833 38.2 101.617 37.864C101.401 37.504 101.305 37.072 101.305 36.568C101.305 36.184 101.353 35.848 101.473 35.56C101.593 35.272 101.737 35.032 101.929 34.864C102.097 34.696 102.313 34.552 102.553 34.456C102.793 34.336 103.033 34.264 103.225 34.216C103.417 34.168 103.633 34.12 103.849 34.12C104.065 34.096 104.209 34.096 104.281 34.096C104.377 34.096 104.425 34.096 104.449 34.096C104.761 34.072 105.097 34.096 105.481 34.168C106.921 34.408 107.617 35.224 107.617 36.568C107.617 36.928 107.569 37.264 107.449 37.552C107.329 37.84 107.185 38.056 106.993 38.248C106.825 38.416 106.609 38.56 106.369 38.68C106.129 38.776 105.913 38.872 105.721 38.92C105.529 38.968 105.313 38.992 105.097 39.016C104.881 39.016 104.737 39.04 104.641 39.04L104.473 39.016ZM104.449 33.232C103.633 33.208 102.745 33.28 101.785 33.448C99.049 33.904 97.681 34.936 97.681 36.544C97.681 37.024 97.825 37.432 98.065 37.816C98.329 38.2 98.641 38.512 99.025 38.728C99.409 38.968 99.841 39.16 100.369 39.304C100.897 39.472 101.353 39.592 101.785 39.664C102.217 39.736 102.649 39.784 103.129 39.832C103.609 39.88 103.921 39.88 104.089 39.88H104.473L105.169 39.856C105.625 39.856 106.177 39.808 106.849 39.688C107.521 39.592 108.169 39.424 108.841 39.232C109.513 39.04 110.065 38.704 110.545 38.224C111.001 37.744 111.241 37.192 111.241 36.544C111.241 36.064 111.097 35.656 110.857 35.272C110.593 34.888 110.281 34.6 109.921 34.36C109.537 34.12 109.105 33.928 108.577 33.76C108.049 33.616 107.569 33.496 107.137 33.424C106.705 33.352 106.273 33.304 105.793 33.256C105.313 33.232 105.001 33.208 104.857 33.208L104.449 33.232ZM112.705 42.808H108.769V43.792H112.705V45.352H116.665V32.776H112.705V42.808ZM95.785 40.888V41.872H102.385V45.352H106.321V41.872H112.369V40.888H95.785ZM135.937 38.104H139.873V33.28H122.233V34.264H135.937V37.12H122.233V40.144C122.233 40.888 122.425 41.584 122.857 42.256C123.289 42.928 123.913 43.456 124.729 43.792L125.161 43.936C125.449 44.032 125.953 44.08 126.721 44.128C127.489 44.176 128.401 44.152 129.457 44.104C130.513 44.056 131.977 43.888 133.825 43.552C135.673 43.24 137.689 42.784 139.873 42.208V41.224C138.097 41.536 136.273 41.752 134.353 41.872C132.433 42.016 130.873 42.04 129.649 41.992C128.425 41.944 127.681 41.872 127.393 41.728C126.577 41.344 126.193 40.768 126.193 39.952V38.104H135.937ZM120.097 45.832V46.792H129.121V54.784H133.057V46.792H142.081V45.832H120.097ZM155.652 54.4H155.58H155.508C155.316 54.4 155.1 54.4 154.884 54.376C154.644 54.352 154.332 54.28 153.924 54.136C153.492 53.992 153.132 53.8 152.82 53.56C152.508 53.32 152.244 52.96 152.004 52.456C151.764 51.976 151.644 51.4 151.644 50.728C151.644 50.056 151.764 49.48 152.004 49C152.244 48.52 152.508 48.136 152.82 47.896C153.132 47.656 153.492 47.464 153.924 47.32C154.332 47.176 154.644 47.104 154.884 47.08C155.1 47.056 155.316 47.032 155.508 47.032H155.58H155.652C155.844 47.032 156.036 47.056 156.276 47.08C156.492 47.104 156.804 47.176 157.212 47.32C157.644 47.464 158.004 47.656 158.316 47.896C158.628 48.136 158.892 48.52 159.132 49C159.372 49.48 159.492 50.056 159.492 50.728C159.492 51.4 159.372 51.976 159.132 52.456C158.892 52.96 158.628 53.32 158.316 53.56C158.004 53.8 157.644 53.992 157.236 54.136C156.828 54.28 156.516 54.352 156.276 54.376C156.036 54.4 155.844 54.4 155.652 54.4ZM156.588 34.888L157.596 33.736H164.436V32.752H146.796V33.736H153.18L147.204 40.624H151.62L155.796 35.8C156.228 35.848 156.612 35.896 156.996 35.992C157.38 36.088 157.788 36.232 158.22 36.448C158.652 36.688 159.036 36.952 159.348 37.288C159.66 37.624 159.924 38.08 160.14 38.656C160.356 39.232 160.452 39.904 160.452 40.624H164.748C164.652 39.784 164.364 39.016 163.932 38.344C163.5 37.672 163.02 37.144 162.468 36.736C161.916 36.352 161.268 36.016 160.524 35.728C159.804 35.464 159.132 35.272 158.508 35.152C157.884 35.032 157.26 34.936 156.588 34.888ZM144.612 42.592V43.576H153.636V46.216C153.108 46.288 152.628 46.384 152.148 46.48C151.668 46.576 151.164 46.744 150.612 46.984C150.06 47.224 149.58 47.488 149.196 47.8C148.812 48.136 148.476 48.544 148.212 49.048C147.972 49.552 147.828 50.104 147.828 50.728C147.828 51.352 147.972 51.904 148.212 52.384C148.452 52.864 148.764 53.272 149.124 53.584C149.508 53.92 149.94 54.184 150.468 54.424C150.996 54.664 151.5 54.832 151.956 54.928C152.436 55.048 152.916 55.144 153.444 55.216C153.972 55.288 154.356 55.336 154.644 55.336C154.932 55.36 155.172 55.36 155.412 55.36C155.484 55.36 155.532 55.36 155.556 55.336L155.7 55.36C155.94 55.36 156.204 55.36 156.492 55.336C156.78 55.336 157.164 55.288 157.692 55.216C158.22 55.144 158.7 55.048 159.156 54.928C159.636 54.832 160.116 54.664 160.644 54.424C161.172 54.184 161.628 53.92 162.012 53.584C162.396 53.272 162.708 52.864 162.948 52.384C163.188 51.904 163.308 51.352 163.308 50.728C163.308 50.104 163.188 49.552 162.924 49.048C162.684 48.568 162.348 48.16 161.964 47.848C161.58 47.536 161.124 47.248 160.596 47.008C160.068 46.768 159.564 46.6 159.084 46.48C158.604 46.384 158.1 46.288 157.572 46.216V43.576H166.596V42.592H144.612Z" fill="white"/>
</g>
<defs>
<filter id="filter0_d_2262_10268" x="0" y="0" width="261" height="89" filterUnits="userSpaceOnUse" color-interpolation-filters="sRGB">
<feFlood flood-opacity="0" result="BackgroundImageFix"/>
<feColorMatrix in="SourceAlpha" type="matrix" values="0 0 0 0 0 0 0 0 0 0 0 0 0 0 0 0 0 0 127 0" result="hardAlpha"/>
<feOffset/>
<feGaussianBlur stdDeviation="10"/>
<feComposite in2="hardAlpha" operator="out"/>
<feColorMatrix type="matrix" values="0 0 0 0 0.252656 0 0 0 0 0.26705 0 0 0 0 0.6125 0 0 0 0.25 0"/>
<feBlend mode="normal" in2="BackgroundImageFix" result="effect1_dropShadow_2262_10268"/>
<feBlend mode="normal" in="SourceGraphic" in2="effect1_dropShadow_2262_10268" result="shape"/>
</filter>
</defs>
</svg>
