<svg width="248" height="255" viewBox="0 0 248 255" fill="none" xmlns="http://www.w3.org/2000/svg">
<ellipse cx="123.781" cy="123.294" rx="123.781" ry="123.294" fill="#0017B3"/>
<mask id="mask0_2585_8662" style="mask-type:alpha" maskUnits="userSpaceOnUse" x="0" y="0" width="248" height="247">
<ellipse cx="123.781" cy="123.294" rx="123.781" ry="123.294" fill="#0017B3"/>
</mask>
<g mask="url(#mask0_2585_8662)">
<path d="M73.586 33.9789C36.9392 49.1238 32.9756 83.9763 35.5747 99.5095C26.9977 116.984 32.9757 132.356 37.0368 137.857C34.3077 141.352 34.925 144.167 35.5747 145.138L37.0368 180.573C35.8672 193 42.7222 199.343 46.2959 200.961C54.8729 201.349 58.3166 184.618 58.9664 176.205C57.0171 169.603 59.7786 170.218 61.403 171.35L62.865 165.04L69.6875 166.982V163.098L77.972 161.642L66.2762 153.39L69.6875 149.992C72.4165 149.992 83.1702 156.141 88.2059 159.215C100.292 177.855 109.486 201.284 112.572 210.669C76.705 211.445 66.7636 230.085 66.2762 239.308L107.699 249.987L152.533 247.075L182.747 231.056C198.731 210.863 189.407 186.075 182.747 176.205V172.807C183.527 169.312 177.224 156.141 173.975 149.992C221.538 156.206 234.728 127.016 235.378 111.645C239.666 89.1217 215.398 65.0453 202.727 55.8225C166.47 32.911 136.938 42.3927 126.705 49.9975L116.958 55.8225L114.521 49.9975C111.013 46.1142 111.11 42.5545 111.597 41.2601C113.937 35.4352 106.724 33.0081 102.826 32.5227C90.74 29.8044 78.2969 32.3609 73.586 33.9789Z" fill="white" stroke="white" stroke-width="7"/>
<path d="M107.382 77.7651C103.144 69.4671 93.3773 65.3896 84.6876 63.172C75.6387 60.8829 64.8663 59.3092 55.7456 62.5998C48.923 65.0319 42.8905 70.8262 41.8132 77.8366C40.5923 85.7769 42.1723 98.6531 51.293 100.656C56.8228 101.801 64.2917 100.513 69.8934 101.157C78.2959 102.087 91.2228 111.172 99.1945 105.377C107.525 99.3684 111.906 86.7784 107.382 77.7651Z" fill="#DEE0F6" stroke="#3237CC" stroke-width="2.5" stroke-miterlimit="10" stroke-linecap="round" stroke-linejoin="round"/>
<path d="M101.533 89.9451C102.703 81.5709 99.288 74.1776 93.9058 73.4317C88.5236 72.6859 83.2122 78.8699 82.0426 87.2442C80.873 95.6184 84.288 103.012 89.6702 103.758C95.0524 104.503 100.364 98.3194 101.533 89.9451Z" fill="white" stroke="#3237CC" stroke-width="2.5" stroke-miterlimit="10" stroke-linecap="round" stroke-linejoin="round"/>
<path d="M67.8254 82.44C67.959 73.9863 63.6628 67.0641 58.2295 66.9789C52.7962 66.8937 48.2833 73.6777 48.1497 82.1314C48.016 90.5851 52.3123 97.5073 57.7456 97.5925C63.1789 97.6777 67.6918 90.8937 67.8254 82.44Z" fill="white" stroke="#3237CC" stroke-width="2.5" stroke-miterlimit="10" stroke-linecap="round" stroke-linejoin="round"/>
<path d="M68.457 94.7903C67.2361 94.9334 65.9434 95.148 64.7225 95.291C64.2198 95.3626 63.7171 95.4341 63.2862 95.7918C62.7835 96.221 62.7835 97.0078 62.8553 97.6517C63.1425 99.0108 63.9325 100.227 65.0816 100.871" stroke="#3237CC" stroke-width="2.5" stroke-miterlimit="10" stroke-linecap="round" stroke-linejoin="round"/>
<path d="M75.6811 126.456C85.2909 124.775 92.2579 118.743 91.2424 112.984C90.2269 107.226 81.6133 103.92 72.0036 105.602C62.3938 107.283 55.4268 113.314 56.4423 119.073C57.4578 124.832 66.0713 128.137 75.6811 126.456Z" fill="#DEE0F6" stroke="#3237CC" stroke-width="2.5" stroke-miterlimit="10" stroke-linecap="round" stroke-linejoin="round"/>
<path d="M99.4815 41.4257C97.6143 42.7133 96.0343 44.5016 94.8853 46.5046" stroke="#3237CC" stroke-width="2.5" stroke-miterlimit="10" stroke-linecap="round" stroke-linejoin="round"/>
<path d="M102.426 44.7162C101.924 46.1469 101.636 47.6491 101.564 49.1513" stroke="#3237CC" stroke-width="2.5" stroke-miterlimit="10" stroke-linecap="round" stroke-linejoin="round"/>
<path d="M64.5786 116.394C67.2358 117.824 72.4784 116.322 74.992 114.748C75.9974 114.105 76.8592 113.246 77.721 112.388C78.8701 111.172 80.0191 109.884 80.6655 108.31C81.5273 110.17 81.8863 112.245 81.7427 114.319C81.6709 115.464 81.3836 116.68 80.8091 117.681C80.3064 118.54 79.5164 119.255 78.6546 119.899C76.3565 121.544 73.412 122.188 70.683 121.616C67.954 120.972 65.584 118.969 64.5786 116.394Z" fill="white" stroke="#3237CC" stroke-width="2.5" stroke-miterlimit="10" stroke-linecap="round" stroke-linejoin="round"/>
<path d="M67.6047 149.136C67.6047 145.81 65.1696 138.395 63.9521 135.103C54.351 133.44 51.9507 136.489 51.9507 138.221C54.0379 138.221 53.5161 139.954 52.9943 140.82L53.5161 141.86C56.8556 141.028 55.9511 143.246 55.0815 144.458L56.1251 144.978C61.1343 144.147 59.6037 147.404 58.2123 149.136L64.4739 152.774L67.6047 149.136Z" fill="#DEE0F6"/>
<path d="M71.0425 116.537C72.1197 119.112 72.1915 119.04 73.3406 121.544" stroke="#3237CC" stroke-width="2.5" stroke-miterlimit="10" stroke-linecap="round" stroke-linejoin="round"/>
<path d="M76.644 113.532C77.6495 116.251 77.7931 117.395 78.6549 119.899" stroke="#3237CC" stroke-width="2.5" stroke-miterlimit="10" stroke-linecap="round" stroke-linejoin="round"/>
<path d="M92.2999 69.7532C89.4272 73.7591 85.8364 76.692 81.3838 78.4804" stroke="#3237CC" stroke-width="2.5" stroke-miterlimit="10" stroke-linecap="round" stroke-linejoin="round"/>
<path d="M59.9824 64.4597C62.8551 68.251 65.8714 72.1854 70.0367 74.4745" stroke="#3237CC" stroke-width="2.5" stroke-miterlimit="10" stroke-linecap="round" stroke-linejoin="round"/>
<path d="M53.3756 158.957C50.0003 159.386 46.5531 158.17 43.8241 156.167C41.095 154.164 39.0124 151.374 37.2888 148.441C36.0679 146.366 34.9907 144.006 35.5652 141.645C35.8525 140.501 36.4988 139.499 37.217 138.641C40.0178 135.279 44.6859 133.347 48.8512 134.42C48.2049 136.28 47.6303 138.212 46.984 140.071C48.8512 139.499 50.7902 139.285 52.7293 139.428C51.9393 140.572 51.2211 141.788 50.6466 143.076C52.0829 142.933 53.5911 142.79 55.0274 142.718C54.3811 143.863 53.9502 145.079 53.7347 146.366C55.4583 146.08 57.2537 146.08 58.9773 146.366C58.2591 147.511 57.6128 148.727 57.1101 150.015" fill="#DEE0F6"/>
<path d="M53.3756 158.957C50.0003 159.386 46.5531 158.17 43.8241 156.167C41.095 154.164 39.0124 151.374 37.2888 148.441C36.0679 146.366 34.9907 144.006 35.5652 141.645C35.8525 140.501 36.4988 139.499 37.217 138.641C40.0178 135.279 44.6859 133.347 48.8512 134.42C48.2049 136.28 47.6303 138.212 46.984 140.071C48.8512 139.499 50.7902 139.285 52.7293 139.428C51.9393 140.572 51.2211 141.788 50.6466 143.076C52.0829 142.933 53.5911 142.79 55.0274 142.718C54.3811 143.863 53.9502 145.079 53.7347 146.366C55.4583 146.08 57.2537 146.08 58.9773 146.366C58.2591 147.511 57.6128 148.727 57.1101 150.015" stroke="#3237CC" stroke-width="2.5" stroke-miterlimit="10" stroke-linecap="round" stroke-linejoin="round"/>
<path d="M57.2537 149.943C54.812 149.514 52.2984 151.589 52.2266 154.092C55.171 159.958 58.0437 165.824 60.8445 171.761C61.6345 169.401 62.4245 166.968 63.2145 164.608C65.1535 165.466 67.0925 166.396 68.9598 167.255C68.6725 165.681 68.457 164.107 68.3852 162.462C71.617 162.319 74.7769 162.033 77.9368 161.532C71.2579 156.954 64.0763 153.162 56.5355 150.158" stroke="#3237CC" stroke-width="2.5" stroke-miterlimit="10" stroke-linecap="round" stroke-linejoin="round"/>
<path d="M50.8618 138.784C51.0054 137.282 52.0827 135.922 53.3754 135.136C54.6681 134.349 56.248 133.991 57.7562 133.848C59.767 133.633 61.7779 133.633 63.7888 133.848" stroke="#3237CC" stroke-width="2.5" stroke-miterlimit="10" stroke-linecap="round" stroke-linejoin="round"/>
<path d="M64.7227 134.206C67.1644 138.998 68.5289 144.22 68.888 149.586" stroke="#3237CC" stroke-width="2.5" stroke-miterlimit="10" stroke-linecap="round" stroke-linejoin="round"/>
<path d="M65.4404 153.019C66.4459 151.732 67.6667 150.587 68.9594 149.586" stroke="#3237CC" stroke-width="2.5" stroke-miterlimit="10" stroke-linecap="round" stroke-linejoin="round"/>
<path d="M36.9297 136.781C34.3443 133.848 32.9798 129.985 32.2617 126.122C30.6099 117.467 31.7589 108.31 35.5652 100.37" stroke="#3237CC" stroke-width="2.5" stroke-miterlimit="10" stroke-linecap="round" stroke-linejoin="round"/>
<path d="M36.2112 146.796C36.1394 154.808 36.5703 162.819 36.4985 170.831C36.4985 173.764 36.4267 176.769 36.4985 179.702C36.4985 182.992 36.5703 186.354 37.4321 189.573C38.653 194.08 41.4538 198.229 45.2601 201.019C48.5636 201.663 51.5081 198.944 53.3035 196.083C56.9661 190.36 58.2588 183.35 58.4025 176.554C58.4743 173.478 58.3307 170.402 58.7616 167.398" stroke="#3237CC" stroke-width="2.5" stroke-miterlimit="10" stroke-linecap="round" stroke-linejoin="round"/>
<path d="M69.9648 149.371C77.6492 151.946 84.759 155.952 91.8688 159.958C98.3323 163.606 104.724 167.255 111.187 170.831C120.954 176.339 131.511 182.062 142.715 180.989" stroke="#3237CC" stroke-width="2.5" stroke-miterlimit="10" stroke-linecap="round" stroke-linejoin="round"/>
<path d="M135.677 130.2C142.427 136.566 147.957 144.364 151.692 152.876C153.559 157.097 154.995 161.603 155.067 166.253C155.139 170.903 153.703 175.624 150.399 178.915" stroke="#3237CC" stroke-width="2.5" stroke-miterlimit="10" stroke-linecap="round" stroke-linejoin="round"/>
<path d="M79.2295 135.207C96.1781 140.93 112.696 147.726 128.783 155.594" stroke="#3237CC" stroke-width="2.5" stroke-miterlimit="10" stroke-linecap="round" stroke-linejoin="round"/>
<path d="M86.1953 156.811C96.9678 173.407 106.519 191.362 112.696 210.104C126.269 210.962 139.914 204.516 151.62 197.577C163.326 190.638 173.308 183.278 182.286 173.12L181.998 170.831C164.044 122.188 125.335 111.887 125.335 111.887C119.159 109.741 113.773 108.596 108.171 110.313C103.431 111.744 99.2659 116.537 99.2659 121.544C99.2659 124.405 100.271 127.195 101.636 129.699C106.376 138.641 115.209 144.864 123.683 150.73" stroke="#3237CC" stroke-width="2.5" stroke-miterlimit="10" stroke-linecap="round" stroke-linejoin="round"/>
<path d="M99.3379 123.762C97.3989 125.693 95.3162 127.553 93.0181 129.127C83.3947 135.851 71.9041 136.566 60.8444 132.918C36.4987 124.763 31.1124 94.7187 37.5041 72.8292C41.5258 59.1661 50.9337 46.8622 62.8553 39.1365C72.7659 32.6984 84.6156 30.1947 96.3217 31.6254C100.487 32.1262 104.581 33.0561 108.53 34.3437C115.066 36.4898 109.177 42.284 112.983 47.7922C119.375 56.9486 119.877 69.4671 118.585 80.1972C117.651 88.2806 115.425 96.7932 111.978 104.662C111.188 106.379 110.398 108.096 109.464 109.812" stroke="#3237CC" stroke-width="2.5" stroke-miterlimit="10" stroke-linecap="round" stroke-linejoin="round"/>
<path d="M122.391 151.803C124.977 151.159 127.634 150.73 130.219 150.372" stroke="#3237CC" stroke-width="2.5" stroke-miterlimit="10" stroke-linecap="round" stroke-linejoin="round"/>
<path d="M116.933 55.5895C120.955 53.6581 125.91 49.6521 129.86 47.5776C146.881 38.922 168.138 39.065 185.949 46.1469C203.759 53.2288 218.194 66.7488 227.889 82.5579C230.762 87.2792 233.347 92.2866 234.712 97.5802C238.662 112.459 232.916 129.127 220.923 139.499C208.93 149.872 189.18 153.091 171.298 149.443" stroke="#3237CC" stroke-width="2.5" stroke-miterlimit="10" stroke-linecap="round" stroke-linejoin="round"/>
<path d="M100.674 91.9793C101.532 85.8356 99.5205 80.48 96.1812 80.0172C92.8418 79.5545 89.4392 84.1598 88.5811 90.3035C87.723 96.4473 89.7344 101.803 93.0737 102.266C96.4131 102.728 99.8158 98.123 100.674 91.9793Z" fill="#3237CC"/>
<path d="M67.7029 83.8181C67.801 77.6161 65.1477 72.5455 61.7767 72.4926C58.4057 72.4398 55.5934 77.4246 55.4954 83.6267C55.3973 89.8287 58.0506 94.8993 61.4216 94.9522C64.7927 95.005 67.6049 90.0202 67.7029 83.8181Z" fill="#3237CC"/>
<path d="M37.7197 186.927C37.7197 186.927 45.9786 192.792 55.8893 186.927C55.8893 186.927 54.9556 198.157 46.7686 200.447C46.8404 200.447 40.0178 199.874 37.7197 186.927Z" fill="#3237CC"/>
<path d="M57.9 167.684V180.417C57.9 180.417 41.8132 180.989 36.9297 176.769V162.891C36.9297 162.891 49.1385 166.754 56.751 165.252L57.9 167.684Z" fill="#3237CC"/>
<path d="M77.0752 135.35C77.0752 135.35 81.3842 146.724 80.2351 153.091L91.7975 159.958C91.7975 159.958 94.5266 150.873 90.3612 139.213L77.0752 135.35Z" fill="#3237CC"/>
<path d="M103.36 144.936C103.36 144.936 106.233 156.81 104.581 166.325L118.226 173.907C118.226 173.907 119.949 165.395 117.723 150.802L103.36 144.936Z" fill="#3237CC"/>
<path d="M125.407 155.022C125.407 155.022 129.86 169.329 128.783 178.485C128.783 178.485 136.036 181.204 141.422 180.417C141.422 180.417 136.826 163.32 129.357 156.453L125.407 155.022Z" fill="#3237CC"/>
<path d="M127.778 153.735C127.778 153.735 145.588 150.802 151.261 153.806C151.261 153.806 156.36 162.319 153.775 170.187C153.775 170.187 133.666 162.819 127.49 155.594L127.778 153.735Z" fill="#3237CC"/>
<path d="M122.822 149.371C122.822 149.371 131.153 142.361 143.433 140.429L135.103 131.058C135.103 131.058 116.79 136.924 113.917 142.575L122.822 149.371Z" fill="#3237CC"/>
<path d="M107.812 136.781C107.812 136.781 108.459 126.838 134.959 116.68L121.386 110.599C121.386 110.599 105.802 119.183 100.846 128.197L107.812 136.781Z" fill="#3237CC"/>
<path d="M139.986 132.918C139.986 132.918 145.732 127.982 149.897 126.48C149.897 126.48 159.089 134.42 160.957 136.781C160.957 136.781 150.041 142.289 148.604 145.437L139.986 132.918Z" fill="#3237CC"/>
<path d="M95.1729 170.187L100.846 166.182L112.624 172.977L101.78 181.061L95.1729 170.187Z" fill="#3237CC"/>
<path d="M107.597 193.722L131.081 181.204C131.081 181.204 140.489 181.061 149.682 177.341C149.682 177.341 157.797 171.761 155.427 160.816L169.934 149.371C169.934 149.371 176.9 158.67 178.911 165.609C178.911 165.609 148.963 197.227 112.05 205.239L107.597 193.722Z" fill="#3237CC"/>
<path d="M114.85 210.175C104.939 211.105 93.5206 213.251 83.61 217.686C76.8593 220.762 70.5394 225.841 68.1695 232.78C65.5841 240.291 68.1695 248.518 71.114 255.957C77.0747 271.337 99.4814 303.742 109.823 319.837" stroke="#3237CC" stroke-width="2.5" stroke-miterlimit="10" stroke-linecap="round" stroke-linejoin="round"/>
<path d="M173.811 239.719C173.452 244.082 174.099 248.518 175.679 252.595C175.966 253.31 176.253 253.954 176.828 254.455C177.402 254.956 182.214 258.962 182.932 259.391C195.787 266.187 210.007 278.419 221.282 284.786" stroke="#3237CC" stroke-width="2.5" stroke-miterlimit="10" stroke-linecap="round" stroke-linejoin="round"/>
<path d="M110.828 321.697C118.872 322.556 127.274 318.121 131.081 311.039L131.152 310.109C124.402 295.73 114.706 271.123 104.939 254.455C123.468 254.455 142.499 254.312 159.592 247.23C176.684 240.148 191.55 224.482 191.694 206.026C191.765 195.368 187.097 185.353 182.573 175.767" stroke="#3237CC" stroke-width="2.5" stroke-miterlimit="10" stroke-linecap="round" stroke-linejoin="round"/>
</g>
</svg>
