<svg width="34" height="34" viewBox="0 0 34 34" fill="none" xmlns="http://www.w3.org/2000/svg">
<circle cx="17" cy="17" r="17" fill="url(#paint0_linear_2413_7352)"/>
<path d="M17.2312 9.66233C19.6976 9.66233 19.9897 9.67315 20.9597 9.71642C21.8612 9.75609 22.348 9.90754 22.6725 10.0337C23.1016 10.1996 23.4118 10.4016 23.7327 10.7225C24.0572 11.047 24.2555 11.3535 24.4214 11.7826C24.5476 12.1072 24.6991 12.5976 24.7387 13.4954C24.782 14.469 24.7928 14.7611 24.7928 17.224C24.7928 19.6904 24.782 19.9825 24.7387 20.9525C24.6991 21.854 24.5476 22.3408 24.4214 22.6653C24.2555 23.0944 24.0536 23.4045 23.7327 23.7255C23.4081 24.05 23.1016 24.2483 22.6725 24.4142C22.348 24.5404 21.8576 24.6919 20.9597 24.7315C19.9861 24.7748 19.694 24.7856 17.2312 24.7856C14.7647 24.7856 14.4726 24.7748 13.5027 24.7315C12.6012 24.6919 12.1144 24.5404 11.7898 24.4142C11.3607 24.2483 11.0506 24.0464 10.7297 23.7255C10.4052 23.4009 10.2068 23.0944 10.041 22.6653C9.91475 22.3408 9.7633 21.8504 9.72364 20.9525C9.68036 19.9789 9.66955 19.6868 9.66955 17.224C9.66955 14.7575 9.68036 14.4654 9.72364 13.4954C9.7633 12.594 9.91475 12.1072 10.041 11.7826C10.2068 11.3535 10.4088 11.0434 10.7297 10.7225C11.0542 10.3979 11.3607 10.1996 11.7898 10.0337C12.1144 9.90754 12.6048 9.75609 13.5027 9.71642C14.4726 9.67315 14.7647 9.66233 17.2312 9.66233ZM17.2312 8C14.7251 8 14.4113 8.01082 13.4269 8.05409C12.4461 8.09736 11.7718 8.25602 11.1876 8.48319C10.5782 8.72119 10.0626 9.0349 9.55055 9.55055C9.0349 10.0626 8.72119 10.5782 8.48319 11.184C8.25602 11.7718 8.09736 12.4425 8.05409 13.4233C8.01082 14.4113 8 14.7251 8 17.2312C8 19.7373 8.01082 20.051 8.05409 21.0354C8.09736 22.0163 8.25602 22.6906 8.48319 23.2747C8.72119 23.8841 9.0349 24.3998 9.55055 24.9118C10.0626 25.4239 10.5782 25.7412 11.184 25.9756C11.7718 26.2027 12.4425 26.3614 13.4233 26.4047C14.4077 26.4479 14.7215 26.4588 17.2276 26.4588C19.7337 26.4588 20.0474 26.4479 21.0318 26.4047C22.0127 26.3614 22.687 26.2027 23.2711 25.9756C23.8769 25.7412 24.3926 25.4239 24.9046 24.9118C25.4167 24.3998 25.734 23.8841 25.9684 23.2783C26.1955 22.6906 26.3542 22.0199 26.3975 21.039C26.4407 20.0546 26.4516 19.7409 26.4516 17.2348C26.4516 14.7287 26.4407 14.415 26.3975 13.4305C26.3542 12.4497 26.1955 11.7754 25.9684 11.1912C25.7412 10.5782 25.4275 10.0626 24.9118 9.55055C24.3998 9.03851 23.8841 8.72119 23.2783 8.4868C22.6906 8.25963 22.0199 8.10097 21.039 8.05769C20.051 8.01082 19.7373 8 17.2312 8Z" fill="white"/>
<path d="M17.2311 12.4895C14.6132 12.4895 12.4893 14.6134 12.4893 17.2313C12.4893 19.8492 14.6132 21.9731 17.2311 21.9731C19.849 21.9731 21.9729 19.8492 21.9729 17.2313C21.9729 14.6134 19.849 12.4895 17.2311 12.4895ZM17.2311 20.3072C15.5327 20.3072 14.1552 18.9297 14.1552 17.2313C14.1552 15.5329 15.5327 14.1554 17.2311 14.1554C18.9295 14.1554 20.3069 15.5329 20.3069 17.2313C20.3069 18.9297 18.9295 20.3072 17.2311 20.3072Z" fill="white"/>
<path d="M23.2678 12.3018C23.2678 12.9149 22.7701 13.4089 22.1607 13.4089C21.5477 13.4089 21.0537 12.9112 21.0537 12.3018C21.0537 11.6888 21.5513 11.1948 22.1607 11.1948C22.7701 11.1948 23.2678 11.6924 23.2678 12.3018Z" fill="white"/>
<defs>
<linearGradient id="paint0_linear_2413_7352" x1="28.5" y1="4.16794e-07" x2="9" y2="28.5" gradientUnits="userSpaceOnUse">
<stop stop-color="#633DC8"/>
<stop offset="0.25" stop-color="#AD339F"/>
<stop offset="0.661458" stop-color="#EE2D79"/>
<stop offset="1" stop-color="#F2745F"/>
</linearGradient>
</defs>
</svg>
