<svg width="226" height="45" viewBox="0 0 226 45" fill="none" xmlns="http://www.w3.org/2000/svg">
<g clip-path="url(#clip0_2359_2895)">
<path d="M157 12.4C161.8 14.9 166 18 170 22L163.6 26.4C161.1 22.9 158.1 19.5 154.6 16.3C151.4 20.8 146.8 24.7 141.5 27.4L138.8 24.2C147.3 18.2 150.7 9.10001 150.7 3.50001C150.7 2.90001 150.4 2.40001 149.9 2.30001L148 1.80001L148.5 0.200012H160C160 4.00001 158.9 8.80001 157 12.4ZM149.4 43.8L147.4 41.8V33.8C147.3 32.9 147 32.3 146.1 32L144.5 31.6L145 29.4H156.2C156.1 31 156 32.6 156 34.3V39.4H181.6C181.6 41.8 179.6 43.8 177.2 43.8H149.4ZM181 5.00001V11.7H186.8C186.8 14.2 184.8 16.2 182.3 16.2H181V26.1C181 29.1 178.6 31.5 175.6 31.5H172.5V5.50001C172.2 3.90001 171.7 3.10001 170.4 2.60001L168.8 2.00001L169.3 0.200012H181V5.00001Z" fill="#0017B3"/>
<path d="M10.8 25.6V20.2H1.5L0 18.7V16.2H24.3H31.8C31.8 18.4 30 20.2 27.8 20.2H27.5H19.3C19.3 23.2 16.9 25.6 13.9 25.6H10.8ZM8.6 44.5L6.9 42.8V37.8C6.9 37.2 6.7 36.8 6.1 36.6L4.9 36.1V33.6H11.2H33.2V31.4H7.4L5.9 29.9V27.1H41.8V32.4C41.8 35.4 39.4 37.8 36.4 37.8H15.5V40.3H42.3C42.3 42.7 40.4 44.6 38 44.6H8.6V44.5ZM42 5.1V21.3C42 24.3 39.4 26.7 36.4 26.7H33.3V25.4H25.9L24.6 24V21.2H33.2V5.5C32.9 3.9 32.4 3.1 31.1 2.6L29.6 2L30.1 0.2H42.1V5.1H42ZM29.8 7.5C29.8 9.6 29.1 11.4 27.6 12.8C26.1 14.3 24.3 15 22.3 15H9.8C7.7 15 5.9 14.3 4.5 12.8C3 11.4 2.3 9.6 2.3 7.5C2.3 5.4 3 3.7 4.5 2.2C5.9 0.7 7.7 0 9.8 0H22.3H22.4C24.5 0 26.2 0.7 27.7 2.2C29.1 3.7 29.8 5.4 29.8 7.5ZM21.7 10.5C22.5 9.7 22.9 8.7 22.9 7.5C22.9 6.3 22.5 5.4 21.7 4.5C20.9 3.6 19.9 3.3 18.8 3.2H13.3H13.2C12 3.2 11.1 3.6 10.2 4.4C9.3 5.2 9 6.4 9 7.5C9 8.6 9.4 9.7 10.3 10.5C11.2 11.3 12.1 11.8 13.3 11.8H13.4H18.9C19.9 11.8 20.9 11.3 21.7 10.5Z" fill="#0017B3"/>
<g clip-path="url(#clip1_2359_2895)">
<path d="M16.391 4.70001C16.5113 4.70001 16.5714 4.70001 16.5714 4.76124C16.6316 4.82246 16.6316 4.88369 16.6316 4.94491L17.1128 7.45511H18.015L18.4361 4.88369C18.4361 4.82246 18.4962 4.76124 18.4962 4.70001C18.4962 4.70001 18.6165 4.70001 18.6767 4.70001H19.3985C19.4586 4.70001 19.5188 4.70001 19.5789 4.76124C19.5789 4.82246 19.5789 4.88369 19.5789 4.94491L19.1579 7.45511H19.7594C19.8195 7.45511 19.8797 7.45511 19.8797 7.51634C19.8797 7.51634 19.9398 7.57756 19.9398 7.63879V8.49593C19.9398 8.55715 19.9398 8.61838 19.8797 8.61838C19.8797 8.61838 19.8195 8.6796 19.7594 8.6796H18.9173L18.6165 10.4551C18.6165 10.5776 18.5564 10.6388 18.4962 10.6388C18.4361 10.6388 18.3759 10.7 18.2556 10.7H16.9925C16.8722 10.7 16.812 10.7 16.7519 10.6388C16.6917 10.6388 16.6917 10.5163 16.6316 10.4551L16.391 8.6796H15.609L15.3684 10.4551C15.3684 10.5776 15.3083 10.6388 15.2481 10.6388C15.188 10.7 15.1278 10.7 15.0075 10.7H13.6842C13.5639 10.7 13.5038 10.7 13.4436 10.6388C13.3835 10.6388 13.3835 10.5163 13.3233 10.4551L13.0226 8.6796H12.1805C12.1203 8.6796 12.0602 8.6796 12.0602 8.61838C12 8.61838 12 8.55715 12 8.49593V7.63879C12 7.57756 12 7.51634 12.0602 7.51634C12.0602 7.51634 12.1203 7.45511 12.1805 7.45511H12.782L12.3609 4.94491C12.3609 4.88369 12.3609 4.82246 12.3609 4.76124C12.4211 4.70001 12.4812 4.70001 12.5414 4.70001H13.2632C13.3835 4.70001 13.4436 4.70001 13.4436 4.70001C13.4436 4.70001 13.5038 4.76124 13.5038 4.88369L13.9248 7.45511H14.7669L15.2481 4.94491C15.2481 4.88369 15.3083 4.82246 15.3083 4.76124C15.4286 4.70001 15.4887 4.70001 15.609 4.70001H16.391ZM14.4662 9.47552L14.5865 8.6796H14.1654L14.2857 9.47552H14.4662ZM15.8496 7.45511H16.1504L15.9699 6.47552L15.8496 7.45511ZM17.6541 9.47552L17.7744 8.6796H17.4135L17.594 9.47552H17.6541Z" fill="#0017B3"/>
</g>
<path d="M62.4004 44.3V31.5H45.4004L43.9004 30V27.1H89.0004C89.0004 29.5 87.0004 31.5 84.6004 31.5H71.0004V38.9C71.0004 41.9 68.6004 44.3 65.6004 44.3H62.4004ZM51.0004 23.2L49.3004 21.5V13.9C49.3004 13.3 49.1004 12.9 48.5004 12.7L47.3004 12.2V9.70001H53.6004H75.6004V4.50001H49.7004L48.2004 3.00001V0.200012H84.1004V8.80001C84.1004 11.6 81.8004 13.8 79.1004 13.8H57.8004V18.9H84.6004C84.6004 21.3 82.7004 23.2 80.3004 23.2H51.0004Z" fill="#0017B3"/>
<path d="M112.6 24.4H119.9V28.9V44.2H122.3C125.3 44.2 127.7 41.8 127.7 38.8V5.70001V0.100006H118V3.00001L118.8 3.50001C119.4 3.70001 119.8 4.40001 119.9 5.30001V11V15.5V24.5M111.8 26C108.9 31.9 104.2 36.3 97.2996 39.7L94.5996 36.3C105.6 30.4 107.5 15.2 107.5 4.60001H98.8996L97.3996 3.10001V0.200006H116.1C116.1 3.20001 116 8.30001 115.7 11L115.1 15.5C114.5 18.8 113.6 21.8 112.5 24.5L111.8 26ZM137.8 5.00001V38.9C137.8 41.9 135.4 44.3 132.4 44.3H130V3.90001C130 3.30001 129.9 2.80001 129.4 2.60001L128.8 2.20001V0.100006H137.8V5.00001Z" fill="#0017B3"/>
<path d="M186.1 39.7L183.4 36.3C195.4 30.3 201.4 15.3 201.4 4.60001H187.7L186.2 3.10001V0.200012H210.3C210.3 19.4 201.1 32.8 186.1 39.7ZM225.1 6.00001V38.9C225.1 41.9 222.7 44.3 219.7 44.3H216.6V6.40001C216.3 4.80001 215.8 4.00001 214.5 3.50001L212.9 2.90001L213.4 0.200012H225.1V6.00001Z" fill="#0017B3"/>
<path d="M119.9 18.1H118.5C116 18.1 114 16.1 114 13.6H119.8V18.1H119.9Z" fill="#0017B3"/>
<path d="M119.9 29.7H118.5C116 29.7 114 27.7 114 25.2H119.8V29.7H119.9Z" fill="#0017B3"/>
</g>
<defs>
<clipPath id="clip0_2359_2895">
<rect width="225.1" height="44.5" fill="white"/>
</clipPath>
<clipPath id="clip1_2359_2895">
<rect width="8" height="6" fill="white" transform="translate(12 4.20001)"/>
</clipPath>
</defs>
</svg>
