<svg width="85" height="33" viewBox="0 0 85 33" fill="none" xmlns="http://www.w3.org/2000/svg">
<rect x="0.5" y="0.5" width="84" height="32" rx="16" fill="white" stroke="#0017B3"/>
<g clip-path="url(#clip0_2251_8794)">
<path d="M50.5324 20.096H51.6924V25.2H40.4404V23.808C43.8044 19.052 47.8644 16.152 47.8644 12.788C47.8644 10.584 46.9364 9.772 45.4284 9.772C43.9204 9.772 42.6444 10.816 42.0644 13.136H40.9044V10.352C42.0644 8.96 43.9204 8.264 45.7764 8.264C48.7924 8.264 51.5764 9.424 51.5764 12.672C51.5764 16.5 46.7044 18.588 43.5724 22.3H48.5604C49.8364 22.3 50.1844 21.72 50.5324 20.096Z" fill="#0017B3"/>
<path d="M59.348 25.664C56.796 25.78 54.94 24.852 54.012 23.924V21.14H55.172C55.636 22.764 56.912 24.272 59 24.156C60.972 24.04 62.248 22.068 62.364 18.472C61.784 19.052 60.508 19.516 59.232 19.632C56.1 19.748 53.084 17.892 53.084 14.064C53.084 10.7 56.216 8.38 59.348 8.38C62.48 8.38 65.148 10.468 65.728 14.064C66.772 19.4 65.032 25.316 59.348 25.664ZM59.696 9.772C57.956 9.772 56.796 11.048 56.796 13.948C56.796 16.732 57.956 18.124 59.696 18.124C61.436 18.124 62.596 16.732 62.596 13.948C62.596 11.28 61.552 9.772 59.696 9.772Z" fill="#0017B3"/>
<path d="M68.2808 25.2V24.04C69.6728 23.924 70.6008 23.46 70.6008 22.184V12.556C70.6008 11.28 70.1368 11.048 69.2088 11.28L68.0488 11.512V10.12L72.8048 8.496H74.0808V22.184C74.0808 23.46 74.8928 23.924 76.4008 24.04V25.2H68.2808Z" fill="#0017B3"/>
<path d="M20.1396 8.38C20.1396 6.176 21.0676 4.32 22.3436 4.32C23.6196 4.32 24.5476 6.176 24.5476 8.38H20.1396Z" fill="#B9C2E3"/>
<path d="M25.2441 9.076C25.2441 7.452 25.9401 6.06 26.8681 6.06C27.7961 6.06 28.4921 7.452 28.4921 9.076H25.2441Z" fill="#B9C2E3"/>
<path d="M16.1963 9.076C16.1963 7.452 16.8923 6.06 17.8203 6.06C18.7483 6.06 19.4443 7.452 19.4443 9.076H16.1963Z" fill="#B9C2E3"/>
<path d="M22.3437 28.448V7.452L13.1797 9.656V20.444C13.1797 25.432 17.2397 28.448 22.3437 28.448Z" fill="#0017B3"/>
<path d="M22.3438 28.448V7.452L31.5077 9.54V20.328C31.5077 25.432 27.4478 28.448 22.3438 28.448Z" fill="#00188E"/>
<path d="M22.3438 20.56L13.7598 23.808C15.1518 27.172 18.3998 28.448 22.3438 28.448C26.1718 28.448 29.5358 27.172 30.9278 23.808L22.3438 20.56Z" fill="#D6DDF2"/>
<path d="M13.76 19.98C16.9632 19.98 19.56 17.3832 19.56 14.18C19.56 10.9767 16.9632 8.38 13.76 8.38C10.5567 8.38 7.95996 10.9767 7.95996 14.18C7.95996 17.3832 10.5567 19.98 13.76 19.98Z" fill="#0017B3"/>
<path d="M13.7601 18.82C16.3227 18.82 18.4001 16.7426 18.4001 14.18C18.4001 11.6174 16.3227 9.54 13.7601 9.54C11.1975 9.54 9.12012 11.6174 9.12012 14.18C9.12012 16.7426 11.1975 18.82 13.7601 18.82Z" fill="#F2F3F6"/>
<path d="M15.0635 14.9638V13.6878H12.3955V14.9638H15.0635Z" fill="#0017B3"/>
<path d="M30.9279 19.98C34.1312 19.98 36.7279 17.3832 36.7279 14.18C36.7279 10.9767 34.1312 8.38 30.9279 8.38C27.7247 8.38 25.1279 10.9767 25.1279 14.18C25.1279 17.3832 27.7247 19.98 30.9279 19.98Z" fill="#0017B3"/>
<path d="M30.9281 18.82C33.4907 18.82 35.5681 16.7426 35.5681 14.18C35.5681 11.6174 33.4907 9.54 30.9281 9.54C28.3655 9.54 26.2881 11.6174 26.2881 14.18C26.2881 16.7426 28.3655 18.82 30.9281 18.82Z" fill="#F2F3F6"/>
<path d="M32.168 14.9114V13.6354H29.5V14.9114H32.168Z" fill="#0017B3"/>
<path d="M30.9277 23.808C29.5357 27.172 26.2878 28.448 22.3438 28.448V20.56L30.9277 23.808Z" fill="#B9C2E3"/>
<path d="M23.62 19.98C23.9404 19.98 24.2 19.7203 24.2 19.4C24.2 19.0797 23.9404 18.82 23.62 18.82C23.2997 18.82 23.04 19.0797 23.04 19.4C23.04 19.7203 23.2997 19.98 23.62 19.98Z" fill="#E6E8EF"/>
<path d="M21.0683 19.98C21.3886 19.98 21.6483 19.7203 21.6483 19.4C21.6483 19.0797 21.3886 18.82 21.0683 18.82C20.748 18.82 20.4883 19.0797 20.4883 19.4C20.4883 19.7203 20.748 19.98 21.0683 19.98Z" fill="#E6E8EF"/>
</g>
<defs>
<clipPath id="clip0_2251_8794">
<rect width="68.44" height="24.128" fill="white" transform="translate(7.95996 4.32)"/>
</clipPath>
</defs>
</svg>
