<svg width="313" height="672" viewBox="0 0 313 672" fill="none" xmlns="http://www.w3.org/2000/svg">
<path d="M17.9998 633.8V38.0999C29.7998 38.0999 39.3998 28.5 39.3998 16.7H273.4C273.4 28.5 283 38.0999 294.8 38.0999V633.8C283 633.8 273.4 643.4 273.4 655.2H39.3998C39.4998 643.4 29.8998 633.8 17.9998 633.8Z" stroke="white" stroke-width="4" stroke-miterlimit="10" stroke-linecap="round" stroke-linejoin="round"/>
<path d="M294.4 9.9L286.5 14.1L294.4 18.4L298.7 26.3L302.9 18.4L310.8 14.1L302.9 9.9L298.7 2L294.4 9.9Z" stroke="white" stroke-width="4" stroke-miterlimit="10" stroke-linecap="round" stroke-linejoin="round"/>
<path d="M9.7998 9.9L1.99982 14.1L9.7998 18.4L14.0998 26.3L18.3998 18.4L26.2998 14.1L18.3998 9.9L14.0998 2L9.7998 9.9Z" stroke="white" stroke-width="4" stroke-miterlimit="10" stroke-linecap="round" stroke-linejoin="round"/>
<path d="M294.4 653.5L286.5 657.8L294.4 662.1L298.7 670L302.9 662.1L310.8 657.8L302.9 653.5L298.7 645.7L294.4 653.5Z" stroke="white" stroke-width="4" stroke-miterlimit="10" stroke-linecap="round" stroke-linejoin="round"/>
<path d="M9.7998 653.5L1.99982 657.8L9.7998 662.1L14.0998 670L18.3998 662.1L26.2998 657.8L18.3998 653.5L14.0998 645.7L9.7998 653.5Z" stroke="white" stroke-width="4" stroke-miterlimit="10" stroke-linecap="round" stroke-linejoin="round"/>
</svg>
