<svg width="277" height="639" viewBox="0 0 277 639" fill="none" xmlns="http://www.w3.org/2000/svg">
<g clip-path="url(#clip0_2375_3256)">
<path d="M138.5 358.4L159.1 498.5L179.7 638.5H138.5H97.2998L117.9 498.5L138.5 358.4Z" fill="#F2F3F6"/>
<path d="M136.9 357.1L206.9 377.7L276.9 398.3V357.1V315.9L206.9 336.5L136.9 357.1Z" fill="#F2F3F7"/>
<path d="M140 357.1L70 377.7L0 398.3V357.1V315.9L70 336.5L140 357.1Z" fill="#F2F3F7"/>
<path d="M138.5 357.1L159.1 178.5L179.7 0H138.5H97.2998L117.9 178.5L138.5 357.1Z" fill="#F2F3F7"/>
<path d="M137.3 358.2L276.9 236.2V102.2L137.3 358.2Z" fill="#F2F3F7"/>
<path d="M139.6 355.9L0 617.1V486.5L139.6 355.9Z" fill="#F2F3F7"/>
<path d="M137.3 355.9L276.9 617.1V486.5L137.3 355.9Z" fill="#F2F3F7"/>
<path d="M139.6 358.2L0 236.2V102.2L139.6 358.2Z" fill="#F2F3F7"/>
</g>
<defs>
<clipPath id="clip0_2375_3256">
<rect width="276.9" height="638.5" fill="white"/>
</clipPath>
</defs>
</svg>
