<svg width="85" height="33" viewBox="0 0 85 33" fill="none" xmlns="http://www.w3.org/2000/svg">
<rect x="0.5" y="0.5" width="84" height="32" rx="16" fill="white" stroke="#0017B3"/>
<g clip-path="url(#clip0_2193_8488)">
<path d="M50.5324 20.0962H51.6924V25.2002H40.4404V23.8082C43.8044 19.0522 47.8644 16.1522 47.8644 12.7882C47.8644 10.5842 46.9364 9.77216 45.4284 9.77216C43.9204 9.77216 42.6444 10.8162 42.0644 13.1362H40.9044V10.3522C42.0644 8.96016 43.9204 8.26416 45.7764 8.26416C48.7924 8.26416 51.5764 9.42416 51.5764 12.6722C51.5764 16.5002 46.7044 18.5882 43.5724 22.3002H48.5604C49.8364 22.3002 50.1844 21.7202 50.5324 20.0962Z" fill="#0017B3"/>
<path d="M59.348 25.6641C56.796 25.7801 54.94 24.8521 54.012 23.9241V21.1401H55.172C55.636 22.7641 56.912 24.2721 59 24.1561C60.972 24.0401 62.248 22.0681 62.364 18.4721C61.784 19.0521 60.508 19.5161 59.232 19.6321C56.1 19.7481 53.084 17.8921 53.084 14.0641C53.084 10.7001 56.216 8.38013 59.348 8.38013C62.48 8.38013 65.148 10.4681 65.728 14.0641C66.772 19.4001 65.032 25.3161 59.348 25.6641ZM59.696 9.77213C57.956 9.77213 56.796 11.0481 56.796 13.9481C56.796 16.7321 57.956 18.1241 59.696 18.1241C61.436 18.1241 62.596 16.7321 62.596 13.9481C62.596 11.2801 61.552 9.77213 59.696 9.77213Z" fill="#0017B3"/>
<path d="M68.2808 25.2001V24.0401C69.6728 23.9241 70.6008 23.4601 70.6008 22.1841V12.5561C70.6008 11.2801 70.1368 11.0481 69.2088 11.2801L68.0488 11.5121V10.1201L72.8048 8.49609H74.0808V22.1841C74.0808 23.4601 74.8928 23.9241 76.4008 24.0401V25.2001H68.2808Z" fill="#0017B3"/>
<path d="M20.1396 8.38007C20.1396 6.17607 21.0676 4.32007 22.3436 4.32007C23.6196 4.32007 24.5476 6.17607 24.5476 8.38007H20.1396Z" fill="#B9C2E3"/>
<path d="M25.2441 9.07606C25.2441 7.45206 25.9401 6.06006 26.8681 6.06006C27.7961 6.06006 28.4921 7.45206 28.4921 9.07606H25.2441Z" fill="#B9C2E3"/>
<path d="M16.1963 9.07606C16.1963 7.45206 16.8923 6.06006 17.8203 6.06006C18.7483 6.06006 19.4443 7.45206 19.4443 9.07606H16.1963Z" fill="#B9C2E3"/>
<path d="M22.3437 28.4481V7.45215L13.1797 9.65615V20.4441C13.1797 25.4321 17.2397 28.4481 22.3437 28.4481Z" fill="#0017B3"/>
<path d="M22.3438 28.4481V7.45215L31.5077 9.54015V20.3281C31.5077 25.4321 27.4478 28.4481 22.3438 28.4481Z" fill="#00188E"/>
<path d="M22.3438 20.5601L13.7598 23.8081C15.1518 27.1721 18.3998 28.4481 22.3438 28.4481C26.1718 28.4481 29.5358 27.1721 30.9278 23.8081L22.3438 20.5601Z" fill="#D6DDF2"/>
<path d="M13.76 19.9801C16.9632 19.9801 19.56 17.3834 19.56 14.1801C19.56 10.9769 16.9632 8.38013 13.76 8.38013C10.5567 8.38013 7.95996 10.9769 7.95996 14.1801C7.95996 17.3834 10.5567 19.9801 13.76 19.9801Z" fill="#0017B3"/>
<path d="M13.7601 18.82C16.3227 18.82 18.4001 16.7426 18.4001 14.18C18.4001 11.6174 16.3227 9.54004 13.7601 9.54004C11.1975 9.54004 9.12012 11.6174 9.12012 14.18C9.12012 16.7426 11.1975 18.82 13.7601 18.82Z" fill="#F2F3F6"/>
<path d="M15.0635 14.964V13.688H12.3955V14.964H15.0635Z" fill="#0017B3"/>
<path d="M30.9279 19.9801C34.1312 19.9801 36.7279 17.3834 36.7279 14.1801C36.7279 10.9769 34.1312 8.38013 30.9279 8.38013C27.7247 8.38013 25.1279 10.9769 25.1279 14.1801C25.1279 17.3834 27.7247 19.9801 30.9279 19.9801Z" fill="#0017B3"/>
<path d="M30.9281 18.82C33.4907 18.82 35.5681 16.7426 35.5681 14.18C35.5681 11.6174 33.4907 9.54004 30.9281 9.54004C28.3655 9.54004 26.2881 11.6174 26.2881 14.18C26.2881 16.7426 28.3655 18.82 30.9281 18.82Z" fill="#F2F3F6"/>
<path d="M32.168 14.9115V13.6355H29.5V14.9115H32.168Z" fill="#0017B3"/>
<path d="M30.9277 23.8081C29.5357 27.1721 26.2878 28.4481 22.3438 28.4481V20.5601L30.9277 23.8081Z" fill="#B9C2E3"/>
<path d="M23.62 19.9801C23.9404 19.9801 24.2 19.7204 24.2 19.4001C24.2 19.0797 23.9404 18.8201 23.62 18.8201C23.2997 18.8201 23.04 19.0797 23.04 19.4001C23.04 19.7204 23.2997 19.9801 23.62 19.9801Z" fill="#E6E8EF"/>
<path d="M21.0683 19.9801C21.3886 19.9801 21.6483 19.7204 21.6483 19.4001C21.6483 19.0797 21.3886 18.8201 21.0683 18.8201C20.748 18.8201 20.4883 19.0797 20.4883 19.4001C20.4883 19.7204 20.748 19.9801 21.0683 19.9801Z" fill="#E6E8EF"/>
</g>
<defs>
<clipPath id="clip0_2193_8488">
<rect width="68.44" height="24.128" fill="white" transform="translate(7.95996 4.32007)"/>
</clipPath>
</defs>
</svg>
