<svg width="16" height="16" viewBox="0 0 16 16" fill="none" xmlns="http://www.w3.org/2000/svg">
<circle cx="8" cy="8" r="8" fill="#00D19F"/>
<path d="M7.5 3.99994C6.5 3.99994 5.58189 4.35908 5.2 4.94884C4.81811 5.5386 4.55945 6.27742 4.69772 6.95791C4.75039 7.19771 4.82282 7.4375 4.79648 7.67729C4.74381 8.13743 4.41459 8.46796 4.11171 8.82441C4.07879 8.86329 4.03928 8.90866 4.0327 8.96051C4.01953 9.05124 4.09854 9.12901 4.17755 9.16141C4.25656 9.19382 4.34875 9.20678 4.43434 9.23918C4.71747 9.35584 4.81624 9.69285 4.83599 9.99745C4.85574 10.302 4.84257 10.6196 5.02035 10.8659C5.19154 11.0992 5.56027 11.002 5.84998 10.989C6.11335 10.9761 6.47549 10.9761 6.70595 11.151C7.022 11.4038 7.05492 12.0648 7.15368 12.4213H10.3076C10.3076 12.1778 10.1891 11.676 10.1759 11.5853C10.1101 11.2418 10.0771 10.8788 10.1232 10.5289C10.1627 10.2826 10.1891 10.0104 10.3076 9.7771C10.4524 9.51138 10.7158 9.31047 10.887 9.05772C11.2887 8.44204 11.4599 7.7097 11.4269 6.98384" stroke="white" stroke-width="0.45" stroke-miterlimit="10" stroke-linecap="round"/>
<path d="M9.61628 5.91641C9.93993 5.91641 10.2023 5.65817 10.2023 5.33962C10.2023 5.02106 9.93993 4.76282 9.61628 4.76282C9.29264 4.76282 9.03027 5.02106 9.03027 5.33962C9.03027 5.65817 9.29264 5.91641 9.61628 5.91641Z" stroke="white" stroke-width="0.45" stroke-miterlimit="10" stroke-linecap="round"/>
<path d="M9.59961 6.80005C10.428 6.80005 11.0996 6.12848 11.0996 5.30005C11.0996 4.47162 10.428 3.80005 9.59961 3.80005C8.77118 3.80005 8.09961 4.47162 8.09961 5.30005C8.09961 6.12848 8.77118 6.80005 9.59961 6.80005Z" stroke="white" stroke-width="0.45" stroke-miterlimit="10" stroke-linecap="round"/>
<path d="M9.61649 7.6468C10.9111 7.6468 11.9605 6.61383 11.9605 5.3396C11.9605 4.06538 10.9111 3.03241 9.61649 3.03241C8.32192 3.03241 7.27246 4.06538 7.27246 5.3396C7.27246 6.61383 8.32192 7.6468 9.61649 7.6468Z" stroke="white" stroke-width="0.45" stroke-miterlimit="10" stroke-linecap="round"/>
</svg>
