<svg width="16" height="16" viewBox="0 0 16 16" fill="none" xmlns="http://www.w3.org/2000/svg">
<circle cx="8" cy="8" r="8" fill="#935DDD"/>
<path d="M3.7998 9.46377C3.7998 9.40854 3.84458 9.36377 3.8998 9.36377H12.6998C12.755 9.36377 12.7998 9.40854 12.7998 9.46377V10.9001C12.7998 10.9554 12.755 11.0001 12.6998 11.0001H3.89981C3.84458 11.0001 3.7998 10.9554 3.7998 10.9001V9.46377Z" stroke="white" stroke-width="0.45"/>
<line x1="5.82461" y1="9.36377" x2="5.82461" y2="10.8365" stroke="white" stroke-width="0.45"/>
<path d="M3.96387 8.95453V8.13635C3.96387 7.91042 4.14702 7.72726 4.37296 7.72726V7.72726C4.59889 7.72726 4.78204 7.5441 4.78204 7.31817V6.90908C4.78204 6.45722 5.14835 6.09091 5.60022 6.09091V6.09091C6.05209 6.09091 6.4184 5.72459 6.4184 5.27273V4.80005C6.4184 4.24776 6.86611 3.80005 7.4184 3.80005H8.46384" stroke="white" stroke-width="0.45"/>
<path d="M5.59961 8.95466V8.54557C5.59961 8.0937 5.96592 7.72739 6.41779 7.72739V7.72739C6.86965 7.72739 7.23596 7.36108 7.23596 6.90921V6.90921C7.23596 6.45735 7.60227 6.09104 8.05414 6.09104H9.09958C9.65187 6.09104 10.0996 5.64332 10.0996 5.09104V4.86377" stroke="white" stroke-width="0.45"/>
</svg>
